<svg width="148" height="122" viewBox="0 0 148 122" fill="none" xmlns="http://www.w3.org/2000/svg">
<path d="M122.286 61.3155C122.286 72.3344 118.58 82.552 112.37 90.7661C108.964 95.1737 104.857 99.0804 100.149 102.086C92.5368 107.094 83.4215 109.999 73.6052 109.999C46.6602 109.999 24.8237 88.1616 24.8237 61.3155C24.8237 34.3692 46.6602 12.6318 73.505 12.6318C83.3214 12.6318 92.4366 15.5368 100.049 20.4453C104.757 23.4504 108.864 27.3571 112.27 31.7647C118.58 40.079 122.286 50.2966 122.286 61.3155Z" fill="#EAEEF9"/>
<path d="M50.2326 26.1723C51.1341 26.1723 51.9355 25.4711 51.9355 24.4694C51.9355 23.5679 51.2343 22.7666 50.2326 22.7666C49.3311 22.7666 48.5298 23.4678 48.5298 24.4694C48.5298 25.3709 49.3311 26.1723 50.2326 26.1723Z" fill="url(#paint0_linear_1717_7207)"/>
<path d="M29.031 96.476C29.9325 96.476 30.7338 95.7748 30.7338 94.7732C30.7338 93.7715 30.0326 93.0703 29.031 93.0703C28.1295 93.0703 27.3281 93.7715 27.3281 94.7732C27.3281 95.7748 28.1295 96.476 29.031 96.476Z" fill="url(#paint1_linear_1717_7207)"/>
<path d="M75.2077 104.49C76.1092 104.49 76.9106 103.789 76.9106 102.787C76.9106 101.785 76.2094 101.084 75.2077 101.084C74.3062 101.084 73.5049 101.785 73.5049 102.787C73.5049 103.789 74.3062 104.49 75.2077 104.49Z" fill="url(#paint2_linear_1717_7207)"/>
<path d="M45.2582 74.038C44.5571 79.2469 44.2566 80.8497 45.3584 82.5526C46.4603 84.2555 47.2616 83.955 46.7608 85.9585C46.2599 88.0621 46.2599 91.6683 47.4619 93.271C48.3634 94.4731 49.5654 95.2745 51.4686 95.7753C52.5705 96.0758 52.871 97.4783 51.9694 98.2796C48.5638 101.084 46.1598 101.185 44.7574 100.684C43.0546 100.083 38.547 95.8755 37.1447 88.8635C35.7424 81.8514 35.7424 79.6476 35.7424 79.6476C34.2399 78.6459 32.8375 77.1433 32.9377 76.0414C33.0378 74.9395 33.0378 73.5371 33.0378 73.5371L45.2582 74.038Z" fill="#1C3754"/>
<path d="M44.056 75.6411L45.1578 74.9399L42.5535 74.3389L42.9542 78.4459L40.0493 84.7568L43.9558 97.9795L43.7555 101.185L47.061 100.784L46.5602 95.1747L45.6587 89.6652" fill="#1C3754"/>
<path d="M18.1127 64.0213C18.8139 68.7294 22.52 73.4375 27.3281 73.137C27.9291 73.137 28.6302 73.0368 29.3314 72.9366C34.3398 72.4358 36.243 72.2354 39.1478 72.3356C36.7438 69.2303 35.0409 65.4237 34.4399 61.517C33.8389 57.6103 34.2396 53.4031 35.6419 49.7969C32.8373 50.7986 31.0343 51.1993 26.1261 52.201C25.4249 52.3012 24.7237 52.5015 24.1227 52.6017C21.7187 53.1026 20.0159 54.8055 19.0142 56.9091C18.1127 59.1129 17.8122 61.7174 18.1127 64.0213Z" fill="#CED7E2"/>
<g filter="url(#filter0_d_1717_7207)">
<path d="M99.3483 81.0497C99.148 83.2535 98.9476 85.5574 97.946 87.5609C97.7456 87.9616 97.5453 88.3623 97.1446 88.4624C96.6438 88.6628 96.0428 88.1619 95.6421 87.8614C86.5269 79.9478 74.3065 76.6421 62.4868 75.4401C48.263 73.9375 39.248 75.7406 34.8406 75.7406C22.8206 75.2397 19.7154 60.4142 24.3231 52.8012C26.2262 49.5956 29.2313 48.3936 32.6369 47.492C32.6369 47.492 45.9592 44.4869 56.4767 40.0793C67.6955 35.271 78.1129 28.259 84.8241 17.7409C86.4267 15.2366 88.6304 18.8428 90.4334 23.2504C92.4368 27.9585 94.0394 33.5681 94.0394 33.5681C95.0411 51.6993 93.8391 43.2848 99.6488 70.1309C99.6488 70.1309 99.8491 75.9409 99.3483 81.0497Z" fill="white"/>
</g>
<path d="M35.0409 75.6414C35.1411 75.6414 35.1411 75.6414 35.2412 75.6414C37.9457 75.6414 40.7504 75.1406 43.3548 75.0404C45.9591 74.8401 48.5635 74.8401 51.1678 74.8401C48.0626 70.6328 45.4583 64.923 44.6569 59.9144C43.8556 55.006 44.8573 48.4948 46.5601 43.6865C29.6319 49.0958 27.2279 46.6917 23.8222 53.8039C19.2145 63.4204 25.525 76.2425 35.0409 75.6414Z" fill="url(#paint3_linear_1717_7207)"/>
<path d="M51.7687 74.8402C51.5683 74.8402 51.368 74.8402 51.1676 74.8402H50.5666C47.4615 70.5328 44.9573 64.7228 44.2561 60.0147C43.5549 55.6072 44.2561 49.2963 46.0591 43.887C46.2595 43.7868 46.4598 43.7868 46.6601 43.6867C46.8605 43.5865 47.0608 43.5865 47.2611 43.4863C47.2611 43.5865 47.161 43.6867 47.161 43.887C45.358 49.1961 44.6568 55.507 45.358 59.9146C46.0591 64.5225 48.5633 70.3325 51.7687 74.5397C51.5683 74.6399 51.6685 74.74 51.7687 74.8402Z" fill="#D62D7B"/>
<path d="M29.6319 53.3027L36.4433 52.2009C36.9441 52.1007 37.3448 51.5999 37.2446 51.099C37.1445 50.5982 36.6436 50.1975 36.1428 50.2977L29.3314 51.3995C28.8306 51.4997 28.4299 52.0005 28.5301 52.5014C28.6303 53.0022 29.0309 53.4029 29.6319 53.3027Z" fill="#D62D7B"/>
<path d="M28.3297 57.6103L35.1411 56.5085C35.6419 56.4083 36.0426 55.9075 35.9424 55.4066C35.8422 54.9058 35.3414 54.5051 34.8406 54.6053L28.0292 55.7071C27.5284 55.8073 27.1277 56.3081 27.2279 56.809C27.328 57.3098 27.8289 57.7105 28.3297 57.6103Z" fill="#D62D7B"/>
<path d="M28.5301 61.7168L35.3414 60.6149C35.8423 60.5148 36.2429 60.0139 36.1428 59.5131C36.0426 59.0122 35.5418 58.6116 35.0409 58.7117L28.2296 59.8136C27.7287 59.9137 27.4282 60.3144 27.4282 60.9154C27.5284 61.4163 28.0292 61.8169 28.5301 61.7168Z" fill="#D62D7B"/>
<path d="M44.0561 75.6411L45.158 74.9399L42.5536 74.3389L39.8491 74.7396L40.0495 84.7568L43.956 97.9795L43.7556 101.185L47.0612 100.784L46.5603 95.1747L45.6588 89.6652" fill="#1C3754"/>
<path d="M42.5532 74.3389C41.852 79.5478 41.5515 81.1506 42.6533 82.8535C43.7552 84.4563 44.5565 84.2559 44.0557 86.2594C43.5548 88.363 43.5548 91.9692 44.7568 93.5719C45.6584 94.774 46.8604 95.5754 48.7635 96.0762C49.8654 96.3767 50.1659 97.7791 49.2644 98.5805C45.8587 101.385 43.4547 101.486 42.0523 100.985C40.3495 100.384 35.842 96.1764 34.4396 89.1643C33.0373 82.1523 33.0373 79.8483 33.0373 79.8483C31.5348 78.8466 30.1324 77.344 30.2326 76.2421C30.3328 75.2404 30.3328 74.7396 30.3328 74.7396L42.5532 74.3389Z" fill="#2D5887"/>
<path d="M104.378 91.3057C113.946 89.8264 118.961 70.8977 115.579 49.0272C112.198 27.1568 101.701 10.6264 92.1328 12.1057C82.5649 13.585 77.5497 32.5137 80.9311 54.3842C84.3125 76.2547 94.8099 92.785 104.378 91.3057Z" fill="#FF75B6"/>
<path d="M103.856 87.9613C98.5468 88.7627 91.1345 79.647 86.7271 65.1221C85.6253 61.6161 84.8239 57.8095 84.1228 53.8026C83.4216 49.5954 83.1211 45.4883 83.1211 41.6818C83.1211 26.8563 87.3281 16.1379 92.637 15.3365C99.248 14.3348 109.064 28.6594 112.27 49.4952C115.475 70.2309 110.467 86.9596 103.856 87.9613Z" fill="url(#paint4_linear_1717_7207)"/>
<path d="M100.35 62.3183L86.8277 65.1231C85.7259 61.6171 84.9245 57.8105 84.2234 53.8036C83.5222 49.5964 83.2217 45.4893 83.2217 41.6828L96.5439 40.7812L98.3469 49.3961L100.35 62.3183Z" fill="#EAEEF9"/>
<path d="M99.9494 62.5187C101.953 62.2182 103.455 57.2096 102.454 50.999C101.452 44.7883 98.5471 40.4809 96.5437 40.7814C94.5404 41.0819 93.0379 46.0905 94.0395 52.3012C95.0412 58.5119 97.9461 62.8193 99.9494 62.5187Z" fill="white"/>
<path d="M99.1479 57.509C100.25 57.3087 101.051 54.6042 100.55 51.2987C100.049 47.893 98.4467 45.5891 97.3449 45.7895C96.2431 45.9898 95.4417 48.6943 95.9426 51.9998C96.5436 55.4055 98.0461 57.7093 99.1479 57.509Z" fill="#EAEEF9"/>
<path d="M113.973 13.4341L118.28 16.4392L113.472 23.4513C112.971 24.1525 113.872 25.054 114.574 24.5532L127.495 15.2372C128.096 14.7363 128.196 13.8347 127.495 13.3339L122.687 9.82786L127.495 1.11288C127.896 0.411673 126.994 -0.389704 126.393 0.211329L113.872 11.5308C113.271 12.1318 113.372 13.0334 113.973 13.4341Z" fill="url(#paint5_linear_1717_7207)"/>
<path d="M126.193 14.9359C126.093 14.9359 126.093 14.9359 125.993 14.8358L121.986 11.8307C121.685 11.6304 121.685 11.2297 121.886 10.9292C122.086 10.6287 122.487 10.6287 122.787 10.8291L126.794 13.8341C127.094 14.0344 127.094 14.4351 126.894 14.7356C126.694 14.9359 126.393 15.0361 126.193 14.9359Z" fill="#96AEFF"/>
<path d="M115.275 11.7301L124.791 2.31438C124.891 2.21422 125.191 2.21422 125.291 2.31438C125.392 2.41455 125.392 2.71505 125.291 2.81522L116.176 12.5314C115.976 12.7318 115.575 12.8319 115.275 12.5314C115.074 12.3311 115.074 11.9304 115.275 11.7301Z" fill="#96AEFF"/>
<path d="M128.998 40.1796L130.5 45.188L122.387 47.592C121.585 47.7923 121.685 49.0945 122.587 49.0945L138.514 49.996C139.315 49.996 139.916 49.2948 139.716 48.4935L138.213 42.6838L147.529 38.9776C148.33 38.6771 148.029 37.4751 147.228 37.5752L130.2 38.6771C129.298 38.6771 128.797 39.4784 128.998 40.1796Z" fill="url(#paint6_linear_1717_7207)"/>
<path d="M137.512 48.9944C137.512 48.8942 137.412 48.8942 137.412 48.7941L136.21 43.8859C136.109 43.5854 136.31 43.1847 136.71 43.1847C137.011 43.0845 137.412 43.2849 137.412 43.6855L138.614 48.5937C138.714 48.8942 138.513 49.2949 138.113 49.2949C137.912 49.3951 137.612 49.2949 137.512 48.9944Z" fill="#96AEFF"/>
<path d="M131.101 39.6791L144.423 38.377C144.624 38.377 144.824 38.4771 144.824 38.6775C144.824 38.8778 144.724 39.0781 144.523 39.0781L131.201 40.8811C130.901 40.8811 130.6 40.6808 130.5 40.3803C130.5 40.0798 130.7 39.7793 131.101 39.6791Z" fill="#96AEFF"/>
<path d="M129.398 73.8377L127.796 78.8461L119.782 76.2417C118.981 75.9412 118.38 77.0431 119.081 77.5439L131.702 87.2601C132.303 87.761 133.305 87.4605 133.505 86.7593L135.508 81.1499L145.225 83.2534C146.026 83.4538 146.427 82.3519 145.725 81.9513L131.101 73.1365C130.5 72.836 129.599 73.1365 129.398 73.8377Z" fill="url(#paint7_linear_1717_7207)"/>
<path d="M131.401 85.958C131.401 85.8578 131.401 85.8578 131.401 85.7576L133.204 81.0498C133.305 80.7493 133.705 80.5489 134.006 80.6491C134.306 80.7493 134.507 81.1499 134.406 81.4504L132.603 86.1583C132.503 86.4588 132.103 86.6591 131.802 86.559C131.502 86.4588 131.401 86.2585 131.401 85.958Z" fill="#96AEFF"/>
<path d="M131.402 74.6392L143.121 81.1501C143.321 81.2503 143.321 81.4506 143.221 81.6509C143.121 81.8513 142.921 81.8513 142.72 81.7511L130.7 75.7411C130.4 75.5407 130.3 75.2402 130.4 74.9397C130.7 74.6392 131.101 74.4389 131.402 74.6392Z" fill="#96AEFF"/>
<path d="M46.0594 80.8496C46.3599 80.8496 46.8607 80.7494 47.3615 80.5491C46.7605 78.7461 46.6604 78.3454 46.46 77.3437C46.3599 76.6426 46.5602 74.7394 46.5602 74.7394H46.46C45.7589 74.7394 45.0577 74.6392 44.4567 74.5391L43.7555 78.3454L43.5552 80.6493L45.3582 80.8496C45.5585 80.8496 45.7589 80.8496 46.0594 80.8496Z" fill="#CED7E2"/>
<path d="M43.3549 74.5391L42.7539 80.0483C42.7539 80.0483 42.8541 81.1501 45.2581 80.3488C44.6571 78.5458 44.5569 78.1451 44.3566 77.1434C44.2564 76.4422 44.4567 74.5391 44.4567 74.5391H43.3549Z" fill="white"/>
<defs>
<filter id="filter0_d_1717_7207" x="0.289551" y="5.91797" width="121.399" height="115.591" filterUnits="userSpaceOnUse" color-interpolation-filters="sRGB">
<feFlood flood-opacity="0" result="BackgroundImageFix"/>
<feColorMatrix in="SourceAlpha" type="matrix" values="0 0 0 0 0 0 0 0 0 0 0 0 0 0 0 0 0 0 127 0" result="hardAlpha"/>
<feOffset dy="11"/>
<feGaussianBlur stdDeviation="11"/>
<feColorMatrix type="matrix" values="0 0 0 0 0.397708 0 0 0 0 0.47749 0 0 0 0 0.575 0 0 0 0.18 0"/>
<feBlend mode="normal" in2="BackgroundImageFix" result="effect1_dropShadow_1717_7207"/>
<feBlend mode="normal" in="SourceGraphic" in2="effect1_dropShadow_1717_7207" result="shape"/>
</filter>
<linearGradient id="paint0_linear_1717_7207" x1="48.5391" y1="24.4605" x2="51.7771" y2="24.4605" gradientUnits="userSpaceOnUse">
<stop stop-color="#83A6FF"/>
<stop offset="1" stop-color="#5A78FF"/>
</linearGradient>
<linearGradient id="paint1_linear_1717_7207" x1="27.3482" y1="94.7842" x2="30.5862" y2="94.7842" gradientUnits="userSpaceOnUse">
<stop stop-color="#FF66A9"/>
<stop offset="1" stop-color="#F53689"/>
</linearGradient>
<linearGradient id="paint2_linear_1717_7207" x1="73.5373" y1="102.845" x2="76.7753" y2="102.845" gradientUnits="userSpaceOnUse">
<stop stop-color="#83A6FF"/>
<stop offset="1" stop-color="#5A78FF"/>
</linearGradient>
<linearGradient id="paint3_linear_1717_7207" x1="30.8093" y1="48.8089" x2="46.9442" y2="75.1055" gradientUnits="userSpaceOnUse">
<stop stop-color="#FF66A9"/>
<stop offset="1" stop-color="#F53689"/>
</linearGradient>
<linearGradient id="paint4_linear_1717_7207" x1="114.317" y1="49.2436" x2="85.7495" y2="53.5284" gradientUnits="userSpaceOnUse">
<stop stop-color="#FF66A9"/>
<stop offset="1" stop-color="#F53689"/>
</linearGradient>
<linearGradient id="paint5_linear_1717_7207" x1="114.333" y1="9.90897" x2="127.852" y2="14.896" gradientUnits="userSpaceOnUse">
<stop stop-color="#83A6FF"/>
<stop offset="1" stop-color="#5A78FF"/>
</linearGradient>
<linearGradient id="paint6_linear_1717_7207" x1="124.918" y1="39.7132" x2="144.732" y2="47.0227" gradientUnits="userSpaceOnUse">
<stop stop-color="#83A6FF"/>
<stop offset="1" stop-color="#5A78FF"/>
</linearGradient>
<linearGradient id="paint7_linear_1717_7207" x1="119.084" y1="75.7551" x2="145.168" y2="85.3774" gradientUnits="userSpaceOnUse">
<stop stop-color="#83A6FF"/>
<stop offset="1" stop-color="#5A78FF"/>
</linearGradient>
</defs>
</svg>
