<svg width="123" height="119" viewBox="0 0 123 119" fill="none" xmlns="http://www.w3.org/2000/svg">
<path d="M121.5 59.5C121.5 72.9671 117.002 85.4547 109.464 95.4938C105.33 100.881 100.345 105.655 94.6308 109.328C85.3907 115.45 74.3268 119 62.4119 119C29.7067 118.878 3.20215 92.1883 3.20215 59.3776C3.20215 26.5669 29.7067 0 62.2903 0C74.2052 0 85.2691 3.55041 94.5092 9.54938C100.223 13.2222 105.208 17.9969 109.342 23.3837C117.002 33.5453 121.5 45.9105 121.5 59.5Z" fill="#EAEEF9"/>
<path d="M118.534 27.1794C119.628 27.1794 120.479 26.3224 120.479 25.2206C120.479 24.1187 119.628 23.2617 118.534 23.2617C117.44 23.2617 116.589 24.1187 116.589 25.2206C116.71 26.3224 117.562 27.1794 118.534 27.1794Z" fill="url(#paint0_linear_1717_9677)"/>
<path d="M12.1006 20.4128C13.1948 20.4128 14.0459 19.5558 14.0459 18.454C14.0459 17.3521 13.1948 16.4951 12.1006 16.4951C11.0063 16.4951 10.1553 17.3521 10.1553 18.454C10.1553 19.5558 11.1279 20.4128 12.1006 20.4128Z" fill="url(#paint1_linear_1717_9677)"/>
<path d="M41.6215 105.288C47.5976 105.288 52.4421 100.246 52.4421 94.0251C52.4421 87.8045 47.5976 82.7617 41.6215 82.7617C35.6454 82.7617 30.8008 87.8045 30.8008 94.0251C30.8008 100.246 35.6454 105.288 41.6215 105.288Z" fill="#1C3754"/>
<path d="M47.2143 99.6562H44.6611V105.166H47.2143V99.6562Z" fill="#1C3754"/>
<path d="M44.9047 105.288C50.8808 105.288 55.7253 100.246 55.7253 94.0251C55.7253 87.8045 50.8808 82.7617 44.9047 82.7617C38.9286 82.7617 34.084 87.8045 34.084 94.0251C34.084 100.246 38.9286 105.288 44.9047 105.288Z" fill="#112133"/>
<path d="M69.3418 96.8408H66.9102V105.288H69.3418V96.8408Z" fill="#112133"/>
<path d="M76.6369 6.48889L71.2873 7.46832L50.2539 90.1072L46.8496 89.2502L67.7615 6.85618C68.0046 5.99918 68.8557 5.50947 69.7068 5.6319L76.6369 6.48889Z" fill="#D9E0EB"/>
<path d="M85.7554 8.57026C85.7554 7.83569 84.9044 7.22355 84.2965 7.22355L72.26 6.1217C71.1658 5.99927 70.1931 6.73384 69.95 7.83569L49.0381 89.8624L52.4423 90.7194L72.6247 11.3861C72.8679 10.2843 73.8405 9.54968 74.9348 9.67211L83.8102 10.5291C84.9044 10.6515 85.7554 9.79454 85.7554 8.57026Z" fill="#AAB3BF"/>
<path d="M60.1019 90.7193L59.1292 95.0043L19.0076 84.8428L1.5 80.3129L2.47265 76.1504L20.1018 80.5578L60.1019 90.7193Z" fill="#AAB3BF"/>
<path d="M20.1018 80.5578L19.0076 84.8428L1.5 80.3129L2.47265 76.1504L20.1018 80.5578Z" fill="#D9E0EB"/>
<path d="M102.412 6.85644L97.0627 7.83586L76.0293 90.4747L72.625 89.6177L93.5369 7.10129C93.78 6.2443 94.6311 5.75459 95.4822 5.87702L102.412 6.85644Z" fill="#D9E0EB"/>
<path d="M111.531 8.93745C111.531 8.20288 110.68 7.59074 110.072 7.59074L98.157 6.48889C97.0627 6.36646 96.0901 7.10103 95.8469 8.20288L74.8135 90.2296L78.2177 91.0866L98.5217 11.7533C98.7649 10.6514 99.7375 9.91687 100.832 10.0393L109.707 10.8963C110.68 11.0187 111.531 10.1617 111.531 8.93745Z" fill="#AAB3BF"/>
<path d="M90.0115 21.4251L66.9111 19.5887L67.6406 16.6504L90.7409 18.6092L90.0115 21.4251Z" fill="#BEC9D7"/>
<path d="M91.5915 23.3843L65.8164 20.6908L66.5459 17.875L92.321 20.446L91.5915 23.3843Z" fill="#D9E0EB"/>
<path d="M80.4055 59.5003L57.4268 57.6639L58.1562 54.7256L81.135 56.6844L80.4055 59.5003Z" fill="#BEC9D7"/>
<path d="M81.986 61.4595L56.2109 58.766L56.9404 55.9502L82.7155 58.5212L81.986 61.4595Z" fill="#D9E0EB"/>
<path d="M73.2326 87.0462L50.2539 85.0873L50.9834 82.2715L73.9621 84.1079L73.2326 87.0462Z" fill="#AAB3BF"/>
<path d="M74.8132 88.8823L49.0381 86.3113L49.7676 83.373L75.5427 85.944L74.8132 88.8823Z" fill="#D9E0EB"/>
<path d="M8.4043 105.655H121.379" stroke="#B1B9CC" stroke-width="2" stroke-miterlimit="10" stroke-linecap="round" stroke-linejoin="round"/>
<path d="M1.98535 105.655H4.1738" stroke="#B1B9CC" stroke-width="2" stroke-miterlimit="10" stroke-linecap="round" stroke-linejoin="round"/>
<path d="M81.3788 20.2008L79.5551 27.1792L31.166 14.9364L32.8681 7.95801L81.3788 20.2008Z" fill="url(#paint2_linear_1717_9677)"/>
<path d="M78.704 26.9347L71.5307 55.8277L24.8438 43.9522L32.017 15.1816L78.704 26.9347Z" fill="url(#paint3_linear_1717_9677)"/>
<path d="M48.0657 11.7533L39.0687 47.6247L24.8438 43.9518L32.017 15.1813L31.1659 14.9364L32.8681 7.95801L48.0657 11.7533Z" fill="url(#paint4_linear_1717_9677)"/>
<path d="M32.0318 15.0986L31.8242 15.9297L78.5161 27.7543L78.7237 26.9232L32.0318 15.0986Z" fill="#4B64E3"/>
<path opacity="0.3" d="M59.7806 14.7879L50.8252 50.6445L55.0699 51.7195L64.0253 15.8628L59.7806 14.7879Z" fill="white"/>
<path d="M76.2724 56.8063L74.5702 63.7847L73.5976 63.5398L54.2663 58.6427L26.0596 51.5419L27.8833 44.5635L42.9593 48.3587L76.2724 56.8063Z" fill="url(#paint5_linear_1717_9677)"/>
<path d="M73.5975 63.5402L71.0443 73.8242L66.4243 92.4332L19.7373 80.6801L27.0321 51.7871L54.2662 58.6431L73.5975 63.5402Z" fill="url(#paint6_linear_1717_9677)"/>
<path d="M42.9592 48.3587L33.9622 84.2301L19.7373 80.6797L27.0321 51.7867L26.0595 51.5419L27.8832 44.5635L42.9592 48.3587Z" fill="url(#paint7_linear_1717_9677)"/>
<path d="M27.0377 51.7929L26.8301 52.624L73.522 64.4487L73.7296 63.6175L27.0377 51.7929Z" fill="#4B64E3"/>
<path opacity="0.3" d="M54.7068 51.3993L45.959 86.4248L50.2037 87.4998L58.9515 52.4742L54.7068 51.3993Z" fill="white"/>
<path d="M71.6517 83.129L71.7733 82.7617H68.8553C62.6547 82.7617 57.6699 87.7813 57.6699 94.0251C57.6699 108.349 79.676 109.451 79.9192 94.27C80.0408 88.7607 76.5149 84.3533 71.6517 83.129Z" fill="#112133"/>
<path d="M71.5302 105.288C77.7077 105.288 82.7156 100.246 82.7156 94.0251C82.7156 87.8045 77.7077 82.7617 71.5302 82.7617C65.3526 82.7617 60.3447 87.8045 60.3447 94.0251C60.3447 100.246 65.3526 105.288 71.5302 105.288Z" fill="#1C3754"/>
<path d="M71.5302 99.1668C74.3504 99.1668 76.6366 96.8646 76.6366 94.0248C76.6366 91.185 74.3504 88.8828 71.5302 88.8828C68.71 88.8828 66.4238 91.185 66.4238 94.0248C66.4238 96.8646 68.71 99.1668 71.5302 99.1668Z" fill="#112133"/>
<path opacity="0.5" d="M76.2721 56.8069L74.57 63.7853L73.5973 63.5404L71.0441 73.8244L54.266 58.6433L42.959 48.3594L76.2721 56.8069Z" fill="url(#paint8_linear_1717_9677)"/>
<path d="M109.176 62.6287C109.04 62.9013 109.04 63.174 108.905 63.4465C108.634 64.128 108.364 64.9458 107.958 65.6272C106.469 69.0343 102.679 73.2586 97.2657 75.3028C95.6416 75.9842 94.0176 76.3936 92.2582 76.5299C90.3634 76.8025 88.198 76.6659 86.1679 76.2571C75.3406 73.9403 68.4384 63.4465 70.7392 52.5438C73.9874 36.8712 93.2054 31.1474 104.303 42.459C109.582 47.9103 111.206 55.8145 109.176 62.6287Z" fill="url(#paint9_linear_1717_9677)"/>
<path d="M108.887 63.4322C108.616 64.1136 108.345 64.9313 107.939 65.6127C106.451 69.0198 102.661 73.2446 97.2473 75.2889C95.6233 75.9703 93.9992 76.3791 92.2398 76.5154L81.5479 65.749L83.578 64.2499L92.9165 62.887L85.7434 55.8003L84.9314 51.0304L86.4201 47.0781L91.157 51.8481L97.6534 52.5295L108.887 63.4322Z" fill="url(#paint10_linear_1717_9677)"/>
<path d="M99.5475 57.9808C99.5475 53.3472 95.758 49.6675 91.1564 49.6675H86.9609V48.0321C86.9609 47.487 86.5549 47.0781 86.0135 47.0781C85.7428 47.0781 85.6075 47.2144 85.4721 47.2144L81.1412 50.6215C80.7352 50.8941 80.5999 51.5755 81.0059 51.9843L81.1412 52.1206L85.4721 55.5277C85.8782 55.8003 86.4195 55.8003 86.8255 55.3914C86.9609 55.2551 86.9609 54.9826 86.9609 54.8463V53.2109H91.1564C93.7279 53.2109 95.758 55.2551 95.758 57.8445C95.758 60.4339 93.7279 62.4782 91.1564 62.4782H82.7653C81.8179 62.4782 80.8706 63.2959 80.8706 64.2499C80.8706 65.2039 81.6826 66.1578 82.63 66.1578H91.1564C95.758 66.4304 99.5475 62.6145 99.5475 57.9808Z" fill="url(#paint11_linear_1717_9677)"/>
<defs>
<linearGradient id="paint0_linear_1717_9677" x1="116.715" y1="25.2602" x2="120.406" y2="25.2602" gradientUnits="userSpaceOnUse">
<stop stop-color="#83A6FF"/>
<stop offset="1" stop-color="#5A78FF"/>
</linearGradient>
<linearGradient id="paint1_linear_1717_9677" x1="10.2542" y1="18.4961" x2="13.9454" y2="18.4961" gradientUnits="userSpaceOnUse">
<stop stop-color="#FF66A9"/>
<stop offset="1" stop-color="#F53689"/>
</linearGradient>
<linearGradient id="paint2_linear_1717_9677" x1="31.1664" y1="17.5637" x2="81.3411" y2="17.5637" gradientUnits="userSpaceOnUse">
<stop stop-color="#83A6FF"/>
<stop offset="1" stop-color="#5A78FF"/>
</linearGradient>
<linearGradient id="paint3_linear_1717_9677" x1="24.856" y1="35.4817" x2="78.7032" y2="35.4817" gradientUnits="userSpaceOnUse">
<stop stop-color="#83A6FF"/>
<stop offset="1" stop-color="#5A78FF"/>
</linearGradient>
<linearGradient id="paint4_linear_1717_9677" x1="33.6838" y1="30.3721" x2="12.8304" y2="52.9426" gradientUnits="userSpaceOnUse">
<stop stop-color="#A4BDFF"/>
<stop offset="1" stop-color="#5A78FF"/>
</linearGradient>
<linearGradient id="paint5_linear_1717_9677" x1="26.0993" y1="54.2044" x2="76.2671" y2="54.2044" gradientUnits="userSpaceOnUse">
<stop stop-color="#83A6FF"/>
<stop offset="1" stop-color="#5A78FF"/>
</linearGradient>
<linearGradient id="paint6_linear_1717_9677" x1="19.7819" y1="72.1241" x2="73.6274" y2="72.1241" gradientUnits="userSpaceOnUse">
<stop stop-color="#83A6FF"/>
<stop offset="1" stop-color="#5A78FF"/>
</linearGradient>
<linearGradient id="paint7_linear_1717_9677" x1="28.5773" y1="66.9776" x2="7.72397" y2="89.5481" gradientUnits="userSpaceOnUse">
<stop stop-color="#A4BDFF"/>
<stop offset="1" stop-color="#5A78FF"/>
</linearGradient>
<linearGradient id="paint8_linear_1717_9677" x1="50.3856" y1="44.0058" x2="71.6387" y2="63.6256" gradientUnits="userSpaceOnUse">
<stop offset="0.00289017" stop-color="#121E5C"/>
<stop offset="1" stop-color="#3D4B6D" stop-opacity="0.2"/>
</linearGradient>
<linearGradient id="paint9_linear_1717_9677" x1="70.1611" y1="56.7237" x2="110.031" y2="56.7237" gradientUnits="userSpaceOnUse">
<stop stop-color="#FF66A9"/>
<stop offset="1" stop-color="#F53689"/>
</linearGradient>
<linearGradient id="paint10_linear_1717_9677" x1="82.2626" y1="51.677" x2="102.859" y2="72.1309" gradientUnits="userSpaceOnUse">
<stop stop-color="#E81778"/>
<stop offset="1" stop-color="#E01F79" stop-opacity="0"/>
</linearGradient>
<linearGradient id="paint11_linear_1717_9677" x1="96.2136" y1="66.1116" x2="81.6607" y2="51.3991" gradientUnits="userSpaceOnUse">
<stop offset="0.0113208" stop-color="#FFC9E3"/>
<stop offset="1" stop-color="white"/>
</linearGradient>
</defs>
</svg>
