<svg width="22" height="20" viewBox="0 0 22 20" fill="none" xmlns="http://www.w3.org/2000/svg">
<path d="M7.96173 16.9106L8.42605 16.3216L7.96173 16.9106ZM11 3.50039L10.4596 4.02049C10.601 4.16738 10.7961 4.25039 11 4.25039C11.2039 4.25039 11.399 4.16738 11.5404 4.02049L11 3.50039ZM14.0383 16.9106L14.5026 17.4996L14.0383 16.9106ZM8.42605 16.3216C6.91039 15.1268 5.25307 13.96 3.93829 12.4795C2.64922 11.028 1.75 9.33425 1.75 7.13685H0.25C0.25 9.80239 1.3605 11.8358 2.81672 13.4756C4.24723 15.0864 6.07077 16.375 7.49742 17.4996L8.42605 16.3216ZM1.75 7.13685C1.75 4.98599 2.96537 3.18228 4.62436 2.42395C6.23607 1.68723 8.40166 1.88233 10.4596 4.02049L11.5404 2.98029C9.0985 0.443277 6.26409 0.0251424 4.00076 1.05972C1.78471 2.07268 0.25 4.42479 0.25 7.13685H1.75ZM7.49742 17.4996C8.00965 17.9034 8.55954 18.334 9.11682 18.6597C9.67386 18.9852 10.3096 19.2498 11 19.2498V17.7498C10.6904 17.7498 10.3261 17.629 9.87361 17.3646C9.42132 17.1003 8.95208 16.7363 8.42605 16.3216L7.49742 17.4996ZM14.5026 17.4996C15.9292 16.375 17.7528 15.0864 19.1833 13.4756C20.6395 11.8358 21.75 9.80239 21.75 7.13685H20.25C20.25 9.33425 19.3508 11.028 18.0617 12.4795C16.7469 13.96 15.0896 15.1268 13.574 16.3216L14.5026 17.4996ZM21.75 7.13685C21.75 4.42479 20.2153 2.07268 17.9992 1.05972C15.7359 0.0251424 12.9015 0.443277 10.4596 2.98029L11.5404 4.02049C13.5983 1.88233 15.7639 1.68723 17.3756 2.42395C19.0346 3.18228 20.25 4.98599 20.25 7.13685H21.75ZM13.574 16.3216C13.0479 16.7363 12.5787 17.1003 12.1264 17.3646C11.6739 17.629 11.3096 17.7498 11 17.7498V19.2498C11.6904 19.2498 12.3261 18.9852 12.8832 18.6597C13.4405 18.334 13.9903 17.9034 14.5026 17.4996L13.574 16.3216Z" fill="#4F5162"/>
</svg>
