<svg xmlns="http://www.w3.org/2000/svg" width="22" height="28" viewBox="0 0 22 28" fill="none">
<path d="M6.45283 19.283V14.1509H7.54717V19.283H6.45283ZM7.54717 19.2736C7.54717 19.8145 7.40566 20.239 7.12264 20.5472C6.84591 20.8491 6.45912 21 5.96226 21L5.83962 20.1038C5.9717 20.1038 6.08176 20.0723 6.16981 20.0094C6.25786 19.9403 6.32704 19.8459 6.37736 19.7264C6.42767 19.6006 6.45283 19.4497 6.45283 19.2736H7.54717ZM5.41509 19.9434C5.47799 19.9937 5.54403 20.0346 5.61321 20.066C5.68239 20.0912 5.75786 20.1038 5.83962 20.1038L5.96226 21C5.79245 21 5.62579 20.9717 5.46226 20.9151C5.30503 20.8648 5.15094 20.7862 5 20.6792L5.41509 19.9434Z" fill="#91929D"/>
<path d="M9.34537 15.0377V14.1509H10.1473V15.0377H9.34537ZM9.34537 18.3585V17.4717H10.1473V18.3585H9.34537ZM11.0246 16.5283V15.9811H12.119V16.5283H11.0246ZM12.119 15.9906H11.0246C11.0246 15.6887 10.946 15.456 10.7888 15.2925C10.6315 15.1226 10.4146 15.0377 10.1378 15.0377V14.1509C10.5278 14.1509 10.8705 14.2296 11.1661 14.3868C11.4617 14.544 11.6944 14.761 11.8642 15.0377C12.0341 15.3145 12.119 15.6321 12.119 15.9906ZM12.119 16.5189C12.119 16.8774 12.0341 17.195 11.8642 17.4717C11.6944 17.7484 11.4617 17.9654 11.1661 18.1226C10.8705 18.2799 10.5278 18.3585 10.1378 18.3585V17.4717C10.4146 17.4717 10.6315 17.3899 10.7888 17.2264C10.946 17.0566 11.0246 16.8208 11.0246 16.5189H12.119ZM8.48688 20.8491V14.1509H9.58122V20.8491H8.48688Z" fill="#91929D"/>
<path d="M14.5681 18.1038V17.217H16.6341V18.1038H14.5681ZM15.5398 19.1698V17.2453H16.6341V19.1698H15.5398ZM12.6813 19.1604V15.8302H13.7756V19.1604H12.6813ZM12.6813 15.8396C12.6813 15.4811 12.7662 15.1635 12.936 14.8868C13.1058 14.6101 13.3385 14.3931 13.6341 14.2358C13.936 14.0786 14.2788 14 14.6624 14V14.8868C14.3857 14.8868 14.1687 14.9717 14.0115 15.1415C13.8543 15.305 13.7756 15.5377 13.7756 15.8396H12.6813ZM12.6813 19.1604H13.7756C13.7756 19.456 13.8543 19.6887 14.0115 19.8585C14.1687 20.022 14.3857 20.1038 14.6624 20.1038V21C14.2788 21 13.936 20.9214 13.6341 20.7642C13.3385 20.6069 13.1058 20.3899 12.936 20.1132C12.7662 19.8365 12.6813 19.5189 12.6813 19.1604ZM15.6907 16.1038C15.6593 15.7264 15.5524 15.4308 15.37 15.217C15.1876 14.9969 14.9486 14.8868 14.653 14.8868V14C15.2253 14 15.6907 14.1698 16.0492 14.5094C16.4077 14.8428 16.6184 15.3145 16.6813 15.9245L15.6907 16.1038ZM16.6341 19.1604C16.6341 19.5189 16.5492 19.8365 16.3794 20.1132C16.2096 20.3899 15.9769 20.6069 15.6813 20.7642C15.3857 20.9214 15.0429 21 14.653 21V20.1038C14.9297 20.1038 15.1467 20.022 15.304 19.8585C15.4612 19.6887 15.5398 19.456 15.5398 19.1604H16.6341Z" fill="#91929D"/>
<path d="M20.8957 8.25234L13.1207 0.582422C12.9948 0.459375 12.8576 0.355469 12.7093 0.267969C12.6701 0.246094 12.6309 0.224219 12.5889 0.205078C12.5637 0.191406 12.5358 0.180469 12.5106 0.169531C12.2587 0.0601562 11.9816 0 11.6989 0H2.04311C0.929196 0 0 0.880469 0 1.96875V26.0312C0 27.1195 0.929196 28 2.04311 28H19.4795C20.5934 28 21.4667 27.1195 21.4667 26.0312V9.63867C21.4667 9.11914 21.2708 8.62148 20.8957 8.25234ZM12.7345 3.01875L18.3544 8.53125H12.7345V3.01875ZM19.4515 26.0312H2.01512V1.96875H10.7193V8.53125C10.7193 9.61953 11.6485 10.5 12.7625 10.5H19.4515V26.0312Z" fill="#91929D"/>
</svg>