<svg width="41" height="31" viewBox="0 0 41 31" fill="none" xmlns="http://www.w3.org/2000/svg">
<path d="M15.5833 18.5H14.125C12.5208 18.5 11.2083 17.1875 11.2083 15.5833M11.2083 15.5833V1H34.3333C36.5208 1 38.4312 2.2104 39.4229 3.98957M11.2083 15.5833L11.2083 5.375H8.52496C7.47496 5.375 6.51248 5.94376 5.98748 6.84793L3.49378 11.2083M40.1667 22.875C40.1667 25.2958 38.2125 27.25 35.7917 27.25H34.3333M34.3333 27.25C34.3333 25.6458 33.0208 24.3333 31.4167 24.3333M34.3333 27.25C34.3333 28.8608 33.0275 30.1667 31.4167 30.1667C29.8058 30.1667 28.5 28.8608 28.5 27.25M34.3333 27.25C34.3333 25.6392 33.0275 24.3333 31.4167 24.3333M31.4167 24.3333C29.8125 24.3333 28.5 25.6458 28.5 27.25M31.4167 24.3333C29.8058 24.3333 28.5 25.6392 28.5 27.25M28.5 27.25H12.6667M12.6667 27.25C12.6667 25.6458 11.3542 24.3333 9.75 24.3333M12.6667 27.25C12.6667 28.8608 11.3608 30.1667 9.75 30.1667C8.13917 30.1667 6.83334 28.8608 6.83334 27.25M12.6667 27.25C12.6667 25.6392 11.3608 24.3333 9.75 24.3333M9.75 24.3333C8.14584 24.3333 6.83334 25.6458 6.83334 27.25M9.75 24.3333C8.13917 24.3333 6.83334 25.6392 6.83334 27.25M6.83334 27.25H5.375C2.95417 27.25 1 25.2958 1 22.875V18.5M1 18.5H5.375C6.17709 18.5 6.83334 17.8438 6.83334 17.0417V12.6667C6.83334 11.8646 6.17709 11.2083 5.375 11.2083H3.49378M1 18.5L1 15.5833L3.49378 11.2083M40.1667 9.75H31.4167M40.1667 14.125H34.3333M40.1667 18.5H37.25" stroke="#D3D4D8" stroke-width="1.5" stroke-linecap="round" stroke-linejoin="round"/>
</svg>
