<svg width="33" height="33" viewBox="0 0 33 33" fill="none" xmlns="http://www.w3.org/2000/svg">
<path d="M2.75 4.125L3.11425 4.24642C4.92931 4.85144 5.83683 5.15394 6.35592 5.87413C6.875 6.59433 6.875 7.55094 6.875 9.46418V13.0625C6.875 16.9516 6.875 18.8961 8.08318 20.1043C9.29137 21.3125 11.2359 21.3125 15.125 21.3125H26.125" stroke="#0738D2" stroke-width="1.5" stroke-linecap="round"/>
<path d="M10.3125 24.75C11.4516 24.75 12.375 25.6734 12.375 26.8125C12.375 27.9516 11.4516 28.875 10.3125 28.875C9.17341 28.875 8.25 27.9516 8.25 26.8125C8.25 25.6734 9.17341 24.75 10.3125 24.75Z" stroke="#0738D2" stroke-width="1.5"/>
<path d="M22.6875 24.7501C23.8266 24.7501 24.75 25.6735 24.75 26.8126C24.75 27.9517 23.8266 28.8751 22.6875 28.8751C21.5484 28.8751 20.625 27.9517 20.625 26.8126C20.625 25.6735 21.5484 24.7501 22.6875 24.7501Z" stroke="#0738D2" stroke-width="1.5"/>
<path d="M6.875 8.25H22.6193C25.4449 8.25 26.8577 8.25 27.469 9.17711C28.0803 10.1042 27.5238 11.4028 26.4107 13.9999L25.8215 15.3749C25.3018 16.5875 25.042 17.1937 24.5254 17.5344C24.0088 17.875 23.3492 17.875 22.03 17.875H6.875" stroke="#0738D2" stroke-width="1.5"/>
</svg>
