<svg width="26" height="27" viewBox="0 0 26 27" fill="none" xmlns="http://www.w3.org/2000/svg">
<path d="M2.86278 25.0176L23.1552 25.0176C24.1741 25.0176 25 24.1904 25 23.1701L25 2.84727C25 1.82691 24.1741 0.999741 23.1552 0.999741L2.86278 0.999741C1.84395 0.999741 1.01801 1.82691 1.01801 2.84727L1.01801 23.1701C1.01801 24.1904 1.84395 25.0176 2.86278 25.0176Z" stroke="#000001" stroke-width="2" stroke-linecap="round" stroke-linejoin="round"/>
<path d="M17.1414 12.0855C18.9244 12.0855 20.3698 10.6379 20.3698 8.85231C20.3698 7.06668 18.9244 5.61914 17.1414 5.61914C15.3585 5.61914 13.9131 7.06668 13.9131 8.85231C13.9131 10.6379 15.3585 12.0855 17.1414 12.0855Z" stroke="#000001" stroke-width="2" stroke-linecap="round" stroke-linejoin="round"/>
<path d="M17.4184 25.0183C16.8244 21.8498 15.1257 18.9957 12.6252 16.9653C10.1248 14.9349 6.98539 13.8603 3.76715 13.9332C2.83864 13.9307 1.91202 14.0173 1 14.1918" stroke="#000001" stroke-width="2" stroke-linecap="round" stroke-linejoin="round"/>
<path d="M24.9827 18.3854C23.4969 17.8829 21.9391 17.6271 20.3708 17.628C18.3857 17.6236 16.4207 18.026 14.5967 18.8104" stroke="#000001" stroke-width="2" stroke-linecap="round" stroke-linejoin="round"/>
</svg>
