<svg width="41" height="26" viewBox="0 0 41 26" fill="none" xmlns="http://www.w3.org/2000/svg">
<path d="M25.881 3.38502H15.1205V22.7213H25.881V3.38502Z" fill="#FF5F00"/>
<path d="M15.8038 13.0532C15.8021 11.1909 16.2241 9.35273 17.0379 7.67771C17.8516 6.00268 19.0358 4.53475 20.5008 3.38503C18.6866 1.9591 16.5079 1.07234 14.2135 0.826093C11.9192 0.579849 9.60191 0.984051 7.52646 1.99252C5.45101 3.00098 3.70117 4.57302 2.47694 6.52893C1.25272 8.48485 0.603516 10.7457 0.603516 13.0532C0.603516 15.3606 1.25272 17.6215 2.47694 19.5774C3.70117 21.5333 5.45101 23.1053 7.52646 24.1138C9.60191 25.1223 11.9192 25.5265 14.2135 25.2802C16.5079 25.034 18.6866 24.1472 20.5008 22.7213C19.0358 21.5715 17.8516 20.1036 17.0379 18.4286C16.2241 16.7536 15.8021 14.9154 15.8038 13.0532Z" fill="#EB001B"/>
<path d="M40.3974 13.0531C40.3975 15.3605 39.7484 17.6214 38.5242 19.5773C37.3 21.5332 35.5503 23.1053 33.4749 24.1138C31.3995 25.1222 29.0822 25.5265 26.7879 25.2802C24.4936 25.034 22.3149 24.1472 20.5008 22.7213C21.9644 21.5704 23.1477 20.1022 23.9613 18.4275C24.775 16.7527 25.1977 14.9151 25.1977 13.0531C25.1977 11.1912 24.775 9.3536 23.9613 7.67884C23.1477 6.00408 21.9644 4.53591 20.5008 3.38503C22.3149 1.9591 24.4936 1.07233 26.7879 0.826089C29.0822 0.579849 31.3995 0.984068 33.4749 1.99254C35.5503 3.00102 37.3 4.57306 38.5242 6.52897C39.7484 8.48489 40.3975 10.7458 40.3974 13.0531Z" fill="#F79E1B"/>
<path d="M39.2242 20.6733V20.2774H39.3838V20.1967H38.9772V20.2774H39.1369V20.6733H39.2242ZM40.0134 20.6733V20.196H39.8888L39.7455 20.5243L39.6021 20.196H39.4774V20.6733H39.5654V20.3132L39.6998 20.6236H39.7911L39.9255 20.3124V20.6733H40.0134Z" fill="#F79E1B"/>
</svg>
