<svg width="24" height="28" viewBox="0 0 24 28" fill="none" xmlns="http://www.w3.org/2000/svg">
<path d="M21.3753 7.12625C21.7109 4.93788 21.3753 3.47896 20.2005 2.13226C18.9139 0.617234 16.5644 0 13.5437 0H4.87291C4.25756 0 3.7541 0.448898 3.64222 1.06613L0.00609965 24.0721C-0.0498406 24.521 0.285801 24.9138 0.733323 24.9138H6.10359L5.71201 27.2705C5.65607 27.6633 5.93577 28 6.38329 28H10.9145C11.4739 28 11.9214 27.6072 11.9773 27.1022L12.9283 21.1543C12.9842 20.6493 13.4877 20.2565 13.9912 20.2565H14.6625C19.0258 20.2565 22.4941 18.4609 23.501 13.2986C23.8926 11.1663 23.7248 9.31463 22.606 8.08016C22.2703 7.68737 21.8788 7.40681 21.3753 7.12625" fill="#009CDE"/>
<path d="M21.3753 7.12625C21.7109 4.93787 21.3753 3.47896 20.2005 2.13226C18.9139 0.617234 16.5644 0 13.5436 0H4.8729C4.25756 0 3.7541 0.448898 3.64222 1.06613L0.00609965 24.0721C-0.0498406 24.521 0.285801 24.9138 0.733323 24.9138H6.10359L7.39022 16.6092C7.5021 15.992 8.00556 15.5431 8.6209 15.5431H11.1942C16.2288 15.5431 20.1446 13.523 21.2634 7.57515C21.3193 7.46292 21.3193 7.29459 21.3753 7.12625Z" fill="#012169"/>
<path d="M8.90061 7.18236C8.95655 6.78958 9.46001 6.28457 9.96347 6.28457H16.7882C17.5714 6.28457 18.3545 6.34068 19.0258 6.4529C19.6411 6.56513 20.7599 6.84569 21.3194 7.18236C21.655 4.99399 21.3194 3.53507 20.1446 2.18838C18.9139 0.617234 16.5644 0 13.5437 0H4.87291C4.25756 0 3.7541 0.448898 3.64222 1.06613L0.00609965 24.0721C-0.0498407 24.521 0.285801 24.9138 0.733324 24.9138H6.10359L8.90061 7.18236V7.18236Z" fill="#003087"/>
</svg>
