<svg width="138" height="138" viewBox="0 0 138 138" fill="none" xmlns="http://www.w3.org/2000/svg">
<path d="M62.0594 8.15835C65.8144 4.14074 72.1856 4.14074 75.9406 8.15835L85.336 18.2111C87.406 20.4258 90.3321 21.6379 93.3619 21.5355L107.114 21.0707C112.61 20.885 117.115 25.3902 116.929 30.8862L116.465 44.6381C116.362 47.6679 117.574 50.594 119.789 52.6639L129.842 62.0594C133.859 65.8144 133.859 72.1856 129.842 75.9406L119.789 85.336C117.574 87.406 116.362 90.3321 116.465 93.3618L116.929 107.114C117.115 112.61 112.61 117.115 107.114 116.929L93.3619 116.465C90.3321 116.362 87.406 117.574 85.336 119.789L75.9406 129.842C72.1856 133.859 65.8144 133.859 62.0594 129.842L52.6639 119.789C50.594 117.574 47.6679 116.362 44.6381 116.465L30.8862 116.929C25.3902 117.115 20.885 112.61 21.0707 107.114L21.5355 93.3619C21.6379 90.3321 20.4258 87.406 18.2111 85.336L8.15835 75.9406C4.14074 72.1856 4.14074 65.8144 8.15835 62.0594L18.2111 52.6639C20.4258 50.594 21.6379 47.6679 21.5355 44.6381L21.0707 30.8862C20.885 25.3902 25.3902 20.885 30.8862 21.0707L44.6381 21.5355C47.6679 21.6379 50.594 20.4258 52.6639 18.2111L62.0594 8.15835Z" fill="#AA6C39" stroke="#FBF8EC"/>
<path d="M79.3642 73.4487L69.5005 83.3125L59.6367 73.4487" stroke="white" stroke-width="2" stroke-miterlimit="10" stroke-linecap="round" stroke-linejoin="round"/>
<path d="M69.5 55.6875V83.0363" stroke="white" stroke-width="2" stroke-miterlimit="10" stroke-linecap="round" stroke-linejoin="round"/>
</svg>
