<svg width="22" height="22" viewBox="0 0 22 22" fill="none" xmlns="http://www.w3.org/2000/svg">
<path d="M14.0005 11C14.0005 12.6569 12.6573 14 11.0005 14C9.34362 14 8.00048 12.6569 8.00048 11C8.00048 9.34315 9.34362 8 11.0005 8C12.6573 8 14.0005 9.34315 14.0005 11Z" stroke="#4F5162" stroke-width="1.5"/>
<path d="M12.7658 1.15224C12.3983 1 11.9324 1 11.0005 1C10.0686 1 9.60265 1 9.23511 1.15224C8.74505 1.35523 8.35571 1.74458 8.15272 2.23463C8.06005 2.45834 8.02379 2.7185 8.0096 3.09799C7.98875 3.65568 7.70274 4.17189 7.21943 4.45093C6.73612 4.72996 6.14608 4.71954 5.65268 4.45876C5.31693 4.2813 5.07349 4.18262 4.83342 4.15102C4.30753 4.08178 3.77567 4.22429 3.35485 4.5472C3.03923 4.78938 2.80626 5.1929 2.34032 5.99993C1.87438 6.80697 1.64141 7.21048 1.58948 7.60491C1.52025 8.1308 1.66276 8.66266 1.98566 9.08348C2.13305 9.27556 2.34019 9.43703 2.66167 9.63902C3.13429 9.93598 3.43838 10.4419 3.43835 11C3.43832 11.5581 3.13424 12.0639 2.66167 12.3608C2.34013 12.5629 2.13297 12.7244 1.98557 12.9165C1.66266 13.3373 1.52015 13.8691 1.58938 14.395C1.64131 14.7894 1.87428 15.193 2.34022 16C2.80616 16.807 3.03913 17.2106 3.35475 17.4527C3.77557 17.7756 4.30743 17.9181 4.83333 17.8489C5.07338 17.8173 5.31681 17.7186 5.65253 17.5412C6.14596 17.2804 6.73605 17.27 7.21939 17.549C7.70273 17.8281 7.98874 18.3443 8.0096 18.9021C8.0238 19.2815 8.06006 19.5417 8.15272 19.7654C8.35571 20.2554 8.74505 20.6448 9.23511 20.8478C9.60265 21 10.0686 21 11.0005 21C11.9324 21 12.3983 21 12.7658 20.8478C13.2559 20.6448 13.6452 20.2554 13.8482 19.7654C13.9409 19.5417 13.9772 19.2815 13.9914 18.902C14.0122 18.3443 14.2982 17.8281 14.7815 17.549C15.2648 17.2699 15.8549 17.2804 16.3484 17.5412C16.6841 17.7186 16.9275 17.8172 17.1675 17.8488C17.6934 17.9181 18.2253 17.7756 18.6461 17.4527C18.9617 17.2105 19.1947 16.807 19.6606 15.9999C20.1266 15.1929 20.3595 14.7894 20.4115 14.395C20.4807 13.8691 20.3382 13.3372 20.0153 12.9164C19.8679 12.7243 19.6607 12.5628 19.3392 12.3608C18.8666 12.0639 18.5626 11.558 18.5626 10.9999C18.5626 10.4418 18.8667 9.93608 19.3392 9.63919C19.6608 9.43715 19.868 9.27566 20.0154 9.08355C20.3383 8.66273 20.4808 8.13087 20.4116 7.60497C20.3596 7.21055 20.1267 6.80703 19.6607 6C19.1948 5.19297 18.9618 4.78945 18.6462 4.54727C18.2254 4.22436 17.6935 4.08185 17.1676 4.15109C16.9276 4.18269 16.6841 4.28136 16.3484 4.4588C15.855 4.71959 15.2649 4.73002 14.7816 4.45096C14.2982 4.17191 14.0122 3.65566 13.9914 3.09794C13.9772 2.71848 13.9409 2.45833 13.8482 2.23463C13.6452 1.74458 13.2559 1.35523 12.7658 1.15224Z" stroke="#4F5162" stroke-width="1.5"/>
</svg>
