<svg width="25" height="24" viewBox="0 0 25 24" fill="none" xmlns="http://www.w3.org/2000/svg">
<path d="M20.334 19L20.8643 19.5303C21.1572 19.2374 21.1572 18.7626 20.8643 18.4697L20.334 19ZM8.33398 4.25C7.91977 4.25 7.58398 4.58579 7.58398 5C7.58398 5.41421 7.91977 5.75 8.33398 5.75V4.25ZM18.8643 16.4697C18.5714 16.1768 18.0965 16.1768 17.8037 16.4697C17.5108 16.7626 17.5108 17.2374 17.8037 17.5303L18.8643 16.4697ZM17.8037 20.4697C17.5108 20.7626 17.5108 21.2374 17.8037 21.5303C18.0965 21.8232 18.5714 21.8232 18.8643 21.5303L17.8037 20.4697ZM20.334 18.25H7.83398V19.75H20.334V18.25ZM7.83398 12.75H16.834V11.25H7.83398V12.75ZM16.834 4.25H8.33398V5.75H16.834V4.25ZM20.8643 18.4697L18.8643 16.4697L17.8037 17.5303L19.8037 19.5303L20.8643 18.4697ZM19.8037 18.4697L17.8037 20.4697L18.8643 21.5303L20.8643 19.5303L19.8037 18.4697ZM21.084 8.5C21.084 6.15279 19.1812 4.25 16.834 4.25V5.75C18.3528 5.75 19.584 6.98122 19.584 8.5H21.084ZM16.834 12.75C19.1812 12.75 21.084 10.8472 21.084 8.5H19.584C19.584 10.0188 18.3528 11.25 16.834 11.25V12.75ZM5.08398 15.5C5.08398 13.9812 6.3152 12.75 7.83398 12.75V11.25C5.48677 11.25 3.58398 13.1528 3.58398 15.5H5.08398ZM7.83398 18.25C6.3152 18.25 5.08398 17.0188 5.08398 15.5H3.58398C3.58398 17.8472 5.48677 19.75 7.83398 19.75V18.25Z" fill="#91929D"/>
<circle cx="6.33398" cy="5" r="2" stroke="#91929D" stroke-width="1.5"/>
</svg>
