<svg width="133" height="113" viewBox="0 0 133 113" fill="none" xmlns="http://www.w3.org/2000/svg">
<path d="M125.213 56.5557C125.213 64.4601 123.546 72.0305 120.656 78.8217C116.544 88.396 109.875 96.6345 101.427 102.646C92.202 109.215 80.976 113 68.7497 113C37.628 113 12.2861 87.7281 12.2861 56.5557C12.2861 50.0985 13.3976 43.864 15.3983 38.0749C16.8432 33.9557 18.6216 30.1704 20.9557 26.6079C30.9591 10.6877 48.5206 0.11133 68.5274 0H68.8608C69.6388 0 70.4169 0 71.1949 0C75.1963 0.11133 79.0865 0.77931 82.8655 1.66995C88.6453 3.11724 93.9804 5.45517 98.8709 8.57241C108.874 14.8069 116.766 24.1586 121.212 35.1803L122.546 38.9655C124.324 44.532 125.213 50.4325 125.213 56.5557Z" fill="#C5D3E8"/>
<path d="M121.101 35.2916C120.767 34.9576 120.323 34.735 120.101 34.735C119.211 34.401 117.1 34.8463 116.877 32.397C116.877 32.2857 116.766 32.1744 116.655 31.9517C116.21 32.5084 115.766 32.9537 115.099 33.733C114.543 32.6197 114.098 31.6177 113.654 30.5044C113.32 30.8384 113.098 31.1724 112.765 31.2837C112.32 31.5064 111.764 31.8404 111.431 31.6177C110.542 31.1724 110.542 29.1685 110.431 28.6118C108.319 29.3911 107.207 27.6099 105.429 27.2759C105.207 28.6118 104.984 30.0591 104.762 31.5064C98.9823 32.9537 99.3157 32.397 95.9813 26.6079C97.2039 25.6059 98.5377 25.0493 99.9826 25.0493C102.65 25.1606 105.207 21.7094 104.762 20.93C103.984 19.8167 104.317 18.5921 104.54 17.2562C104.095 17.1448 103.651 16.9222 103.206 17.0335C102.094 17.1448 101.539 16.6995 101.094 15.6975C100.427 13.9163 97.9819 15.9202 97.4262 12.5803C96.7593 8.57241 97.6485 8.68374 98.8711 8.57241C93.9806 5.45517 88.6454 3.11724 82.8657 1.66995C82.6434 2.00394 82.1988 2.56059 82.0877 2.89458C80.6427 5.90049 79.4201 4.00788 77.7529 5.90049C76.3079 7.57044 74.863 9.24039 73.4181 11.0217C71.3063 9.90837 70.6394 7.90443 70.0836 5.78916C69.4167 3.3399 71.3063 1.66995 71.1951 0C70.1948 0 68.9721 0 68.5275 0C70.1948 2.44926 70.3059 1.78128 65.9711 5.23251C63.0813 1.00197 60.3025 6.01182 58.8576 3.00591C57.1904 4.11921 55.6343 5.12118 54.0782 6.34581C53.4113 6.79113 53.4113 9.24039 53.9671 9.79704C54.1894 10.131 54.8563 10.3537 55.1897 10.2424C56.7458 9.68571 58.1907 8.9064 58.8576 7.12512C60.3025 8.12709 61.414 7.34778 62.4144 6.34581C63.8593 4.89852 64.3039 6.45714 65.6377 7.45911C67.0826 8.57241 66.4157 9.01773 65.3042 11.133C65.3042 11.2443 65.3042 11.3557 65.3042 11.5783C65.7488 11.467 66.1934 11.3557 66.8603 11.2443C66.3046 13.2483 65.86 17.4788 62.7478 15.4749C61.414 14.5842 60.8583 14.5842 60.0802 15.9202C59.6356 16.6995 58.8576 16.8108 58.0796 16.8108C51.5218 17.1448 52.8556 17.8128 50.0769 18.7034C47.965 19.3714 50.4103 17.2562 42.0742 22.0433C41.7407 22.266 41.4073 22.7113 41.2961 23.0453C40.7404 25.9399 40.6292 28.3892 40.0735 28.5005C37.7394 28.7232 39.6289 22.8227 34.4049 22.7113C31.4039 22.6 29.0698 24.0473 27.0691 26.1626C25.513 27.8325 24.8461 32.8424 28.7363 32.0631C29.1809 31.9517 29.6255 31.7291 29.959 31.8404C30.8481 32.0631 31.2927 33.1764 30.6258 33.8443C29.7367 34.8463 27.4025 35.7369 29.0698 36.8502C29.959 37.4069 29.5144 37.7409 29.5144 40.9695C29.5144 42.7507 30.8481 43.7527 33.0711 44.6433C36.2944 45.7566 35.961 40.7468 39.0731 42.6394C40.4069 43.4187 41.8519 44.198 43.4079 44.7547C44.7417 45.3113 45.9644 45.9793 46.9647 47.0926C48.4096 48.6512 53.4113 48.9852 55.8566 55.4424C56.19 56.4443 57.1904 57.2236 57.635 58.2256C58.1907 59.5616 59.0799 60.0069 60.4137 60.3409C63.7481 61.1202 66.7492 63.4581 66.7492 65.1281C66.7492 67.2433 65.86 68.9133 64.1927 70.2493C62.7478 71.4739 62.4144 74.4798 60.636 77.263C57.635 81.8276 54.8563 80.1576 53.4113 82.2729C52.1887 84.0542 50.966 85.7241 49.8546 87.5054C48.6319 89.6207 44.186 91.5133 42.6299 93.7399C41.4073 95.5212 39.9623 97.3025 40.6292 99.863C40.9627 100.976 41.5184 103.648 41.5184 105.096C39.5177 104.539 38.2951 103.203 36.9613 101.867C34.9606 99.7517 34.4049 97.1911 34.1826 94.4079C34.0715 93.6286 33.6269 92.8493 33.5157 92.0699C33.5157 90.5113 33.6269 88.8414 33.738 87.2827C33.8492 86.1694 34.1826 85.0562 33.6269 83.8315C33.4046 83.2749 33.5157 82.3842 33.6269 81.7162C34.516 75.4818 34.7383 75.0364 34.516 74.7025C33.0711 73.2552 33.0711 71.6965 33.5157 70.2493C31.6262 68.134 29.959 66.2414 28.2917 64.3488C27.5137 63.4581 27.1802 62.3448 27.1802 61.1202C27.1802 60.2296 26.8468 59.4502 26.7356 58.5596C26.4022 54.997 28.2917 53.4384 30.1812 50.6552C32.1819 47.7606 30.9593 45.534 30.2924 45.0887C26.8468 43.1961 28.2917 40.6355 26.6245 39.4108C24.9573 38.1862 25.513 37.0729 25.6242 36.0709C22.2897 33.6217 20.1779 33.065 21.1782 28.6118C21.1782 28.5005 21.2894 28.1665 21.2894 28.0552C21.4005 27.6099 21.2894 27.1645 21.0671 26.7192V26.6079C21.0671 26.6079 21.0671 26.4965 20.9559 26.4965C15.5096 35.1803 12.3975 45.4227 12.3975 56.5557C12.3975 86.5034 35.7387 111.107 65.1931 112.889C66.4157 113 67.6384 113 68.861 113C80.9762 113 92.3134 109.103 101.539 102.646V102.535C101.539 102.424 101.65 102.312 101.65 102.09V101.978C101.65 101.978 101.65 101.978 101.65 101.867C102.317 100.086 103.095 98.3044 103.984 96.6345C107.207 90.9566 101.428 90.5113 106.763 84.0542C107.43 83.1635 110.653 80.8256 108.763 76.8177C107.985 75.1478 107.874 73.8118 108.096 72.5872C108.541 70.2493 110.097 68.468 109.43 65.7961C109.208 64.6828 108.986 64.5714 107.985 65.0167C107.318 65.3507 106.985 65.1281 106.429 64.7941C105.429 64.2374 104.095 63.7921 102.984 64.0148C94.9809 65.4621 90.9796 59.3389 89.5346 58.3369C86.7559 56.4443 87.8674 54.1064 89.7569 45.3113C89.8681 44.9773 89.9792 44.532 89.8681 44.198C88.9789 41.7488 90.535 40.5241 92.0911 39.1882C92.2022 39.0768 92.3134 38.9655 92.4245 38.9655C94.4252 38.4089 95.6478 36.9616 96.8704 35.5143C96.9816 35.403 97.0928 35.1803 97.315 35.1803C100.65 33.9557 103.984 32.9537 107.43 34.2897C109.43 35.069 110.542 32.9537 115.543 37.1842C118.322 39.7448 118.544 38.5202 122.435 39.0768L121.101 35.2916ZM35.7387 32.5084C36.6279 30.7271 37.8505 30.6158 39.2954 31.5064C40.0735 31.9517 40.5181 31.9517 43.8525 32.9537C43.8525 33.1764 43.7414 33.2877 43.7414 33.5103C40.9627 33.8443 38.4062 33.065 35.7387 32.5084ZM46.8535 37.2956C44.964 37.0729 43.4079 36.9616 41.8519 36.7389C42.9633 35.2916 45.7421 34.9576 46.8535 36.0709C47.0758 36.2936 46.8535 36.9616 46.8535 37.2956ZM78.6421 8.01576C80.9762 7.01379 81.8654 6.56847 82.8657 7.68177C83.088 7.90443 82.8657 8.46108 82.7546 8.9064C82.5323 9.68571 81.8654 10.3537 81.4208 10.799C80.3093 10.3537 79.309 10.131 78.4198 9.57438C77.7529 9.12906 77.864 8.34975 78.6421 8.01576ZM94.314 18.5921C93.9806 18.1468 93.7583 17.7015 93.4248 17.1448C94.5363 16.2542 95.2032 16.0315 94.8698 15.0296C94.7586 14.8069 94.8698 14.2502 94.9809 14.1389C95.2032 14.0276 95.759 13.9163 95.9813 14.1389C97.315 15.5862 99.4269 16.3655 100.094 18.3695C100.094 18.4808 100.205 18.4808 100.205 18.5921C100.316 19.2601 100.65 20.2621 100.427 20.3734C99.6492 20.93 98.76 21.3754 97.8708 21.3754C96.9816 21.3754 96.537 20.4847 96.537 19.5941C96.537 19.0374 96.3147 18.4808 96.2036 17.8128C95.3144 18.1468 94.8698 18.3695 94.314 18.5921Z" fill="#EBF0FD"/>
<path d="M30.4447 54.4551C9.27736 58.04 -12.4121 79.7419 16.3391 87.3123" stroke="#FB559E" stroke-width="4" stroke-miterlimit="10" stroke-linecap="round" stroke-linejoin="round" stroke-dasharray="1 7"/>
<path d="M16.288 19.2598C17.2883 19.2598 18.1775 18.4805 18.1775 17.3672C18.1775 16.3652 17.3995 15.4746 16.288 15.4746C15.2876 15.4746 14.3984 16.2539 14.3984 17.3672C14.5096 18.4805 15.2876 19.2598 16.288 19.2598Z" fill="url(#paint0_linear_1717_9750)"/>
<path d="M16.5096 103.76C17.51 103.76 18.3992 102.981 18.3992 101.867C18.3992 100.754 17.6211 99.9746 16.5096 99.9746C15.5093 99.9746 14.6201 100.754 14.6201 101.867C14.6201 102.981 15.5093 103.76 16.5096 103.76Z" fill="url(#paint1_linear_1717_9750)"/>
<path d="M120.152 18.7921C121.153 18.7921 121.931 18.0127 121.931 17.0108C121.931 16.0088 121.153 15.2295 120.152 15.2295C119.152 15.2295 118.374 16.0088 118.374 17.0108C118.485 18.0127 119.263 18.7921 120.152 18.7921Z" fill="url(#paint2_linear_1717_9750)"/>
<path d="M64.1663 39.033L57.8951 34.5712L57.7292 34.4107C56.903 33.7721 56.7165 32.6312 57.1836 31.6418C57.654 30.8158 58.4564 30.3106 59.4349 30.4561C60.5759 30.5986 62.2079 30.8955 64.6592 31.5043C69.4097 33.2151 78.5618 35.4989 78.5618 35.4989L64.1663 39.033Z" fill="#2767F4"/>
<path d="M116.836 46.5642C118.452 46.5345 119.734 45.1935 119.7 43.5691C119.666 41.9446 118.329 40.6519 116.713 40.6816C115.098 40.7113 113.816 42.0522 113.85 43.6767C113.884 45.3011 115.221 46.5939 116.836 46.5642Z" fill="#133786"/>
<path d="M83.1606 61.0789C84.7761 61.0491 86.0583 59.7082 86.0243 58.0837C85.9904 56.4593 84.6531 55.1665 83.0376 55.1962C81.422 55.2259 80.1398 56.5669 80.1738 58.1913C80.2078 59.8158 81.545 61.1086 83.1606 61.0789Z" fill="#133786"/>
<path d="M131.46 30.6023C131.809 31.7402 132.012 33.6981 129.934 35.371C127.855 37.044 125.777 38.7169 115.921 41.6771C106.066 44.6373 78.1117 52.8344 69.5429 55.1171C60.9775 57.5632 52.3642 57.7216 46.8182 56.8428C41.2688 55.8005 34.8761 53.3025 32.8371 49.0898C30.9606 44.8741 35.5247 45.4441 35.5247 45.4441L36.8555 46.8908C36.8555 46.8908 111.175 24.6 114.086 23.8926C116.998 23.1852 120.736 23.1165 123.37 24.7027C124.024 24.8542 124.518 25.172 124.853 25.6563C126.506 26.9336 127.671 28.22 127.84 28.5438C127.84 28.5438 131.107 29.3011 131.46 30.6023Z" fill="url(#paint3_linear_1717_9750)"/>
<path d="M58.2605 67.5849L69.6574 52.8265C70.4495 51.8311 70.0971 50.5299 69.1084 49.8942C68.2855 49.4189 68.4241 48.2721 69.2299 47.9303C72.1312 46.7327 77.6157 44.6702 82.4638 43.2733C89.2484 41.1869 90.8804 41.4838 92.5226 42.2709C94.3274 43.0551 96.9686 44.9682 96.5084 46.2844C96.2073 47.4342 95.5606 47.6096 94.5992 48.2811C93.6378 48.9527 68.3534 68.2167 66.4306 69.5598C64.5112 71.0663 62.2633 72.4154 60.4756 72.4483C58.688 72.4812 56.8901 72.0238 56.5616 71.8664C56.3923 71.5426 55.5626 70.7405 56.5138 69.5787C57.6275 68.4139 58.2605 67.5849 58.2605 67.5849Z" fill="#2767F4"/>
<path d="M38.4201 51.7662L42.9397 50.2119L43.7454 49.8701C44.2296 49.6977 44.7205 49.8522 45.0524 50.173C45.3877 50.6573 45.4013 51.3109 44.924 51.8101L35.9975 60.3112C35.6793 60.644 35.1917 60.6529 34.8667 60.6589C34.0507 60.5105 33.5461 59.7024 33.8541 58.8794L36.1722 53.1153C36.3279 52.7855 36.6461 52.4527 36.9711 52.4467L38.4201 51.7662Z" fill="#2767F4"/>
<path d="M34.6377 49.711C34.6377 49.711 33.9485 49.923 33.5069 50.0588C31.3037 47.1333 30.5936 44.7878 29.0665 41.8047C27.5472 38.8368 25.7101 34.836 25.7101 34.836C25.5373 34.3487 25.5271 33.8585 25.8453 33.5257C26.1601 33.0295 26.9692 32.8512 27.467 33.3324L38.3433 40.3251C39.1661 40.8004 39.9889 41.2757 40.9743 41.748L46.7135 44.0945C47.042 44.2519 47.0522 44.7421 46.7306 44.9115C45.1225 45.7584 43.317 46.6081 40.3069 47.8136C36.972 49.1491 34.6377 49.711 34.6377 49.711Z" fill="#2767F4"/>
<path d="M127.836 28.3804C126.394 29.3878 124.949 30.2317 123.34 31.0786C122.697 31.4174 122.213 31.5897 121.566 31.7651C120.595 31.9464 119.772 31.4712 119.43 30.6601C119.084 29.6856 119.551 28.6962 120.357 28.3545C120.841 28.1821 121.325 28.0097 121.647 27.8403C122.774 27.3292 123.414 26.827 124.853 25.6563C126.505 26.9337 127.67 28.22 127.836 28.3804Z" fill="#2767F4"/>
<defs>
<linearGradient id="paint0_linear_1717_9750" x1="14.4437" y1="17.4429" x2="18.0367" y2="17.4429" gradientUnits="userSpaceOnUse">
<stop stop-color="#FF66A9"/>
<stop offset="1" stop-color="#F53689"/>
</linearGradient>
<linearGradient id="paint1_linear_1717_9750" x1="14.6994" y1="101.965" x2="18.2924" y2="101.965" gradientUnits="userSpaceOnUse">
<stop stop-color="#83A6FF"/>
<stop offset="1" stop-color="#5A78FF"/>
</linearGradient>
<linearGradient id="paint2_linear_1717_9750" x1="118.417" y1="17.082" x2="121.798" y2="17.082" gradientUnits="userSpaceOnUse">
<stop stop-color="#FF66A9"/>
<stop offset="1" stop-color="#F53689"/>
</linearGradient>
<linearGradient id="paint3_linear_1717_9750" x1="103.5" y1="32.4999" x2="105.834" y2="60.7268" gradientUnits="userSpaceOnUse">
<stop stop-color="#A4BDFF"/>
<stop offset="1" stop-color="#5A78FF"/>
</linearGradient>
</defs>
</svg>
