<svg width="121" height="106" viewBox="0 0 121 106" fill="none" xmlns="http://www.w3.org/2000/svg">
<path d="M93.2661 95.4607C93.6287 95.2782 93.8099 95.0956 94.1725 94.9131" stroke="#FF78B7" stroke-width="0.6123" stroke-linecap="round" stroke-linejoin="round"/>
<path d="M97.7977 92.3576C100.698 90.1672 103.598 87.9768 105.955 85.2388C109.58 81.2231 112.299 75.9296 112.118 70.4536C112.118 66.6204 110.668 62.9697 109.218 59.3191C107.767 55.851 106.136 52.2003 105.592 48.3671C105.048 44.5339 105.592 40.3356 108.311 37.5976C109.943 35.7723 112.843 34.8596 115.018 36.685C115.743 37.4151 116.287 38.3278 116.65 39.423C119.912 50.1924 105.411 56.9462 96.7101 54.9383C92.5409 53.8431 88.553 51.4702 85.2901 48.7322C78.4019 43.0736 73.5076 37.9627 70.6073 29.3837C68.0696 22.0823 66.4381 14.0509 61.0001 8.02727C42.8732 -12.0514 7.1632 11.8605 6.98193 35.0422C6.98193 48.1846 15.139 61.3269 27.4653 65.1601C33.4472 66.9855 39.9729 66.6204 46.3173 66.2553C49.3989 66.0728 52.4804 65.8903 55.7433 65.7077" stroke="#FF78B7" stroke-linecap="round" stroke-linejoin="round" stroke-dasharray="1.22 4"/>
<path d="M57.7373 65.8906C58.0998 65.8906 58.4624 65.8906 58.8249 65.8906" stroke="#FF78B7" stroke-width="0.6123" stroke-linecap="round" stroke-linejoin="round"/>
<path d="M10.7886 103.492H118.1" stroke="#B1B9CC" stroke-width="2" stroke-miterlimit="10" stroke-linecap="round" stroke-linejoin="round"/>
<path d="M1 103.492H5.35046" stroke="#B1B9CC" stroke-width="2" stroke-miterlimit="10" stroke-linecap="round" stroke-linejoin="round"/>
<path d="M89.8217 11.4951H65.7129V38.8751H89.8217V11.4951Z" fill="#B4C2D1"/>
<path d="M89.8219 11.4951H73.689V38.8751H89.8219V11.4951Z" fill="url(#paint0_linear_1717_7244)"/>
<path d="M69 5.5H32V47.5H69V5.5Z" fill="url(#paint1_linear_1717_7244)"/>
<path d="M69 5.5H44V47.5H69V5.5Z" fill="url(#paint2_linear_1717_7244)"/>
<path d="M4.44378 65.8906C5.71267 65.8906 6.61901 64.9779 6.61901 63.7002C6.61901 62.4224 5.71267 61.5098 4.44378 61.5098C3.1749 61.5098 2.26855 62.4224 2.26855 63.7002C2.26855 64.9779 3.35617 65.8906 4.44378 65.8906Z" fill="url(#paint3_linear_1717_7244)"/>
<path d="M103.236 13.503C104.323 13.503 105.23 12.5904 105.23 11.4952C105.23 10.4 104.323 9.4873 103.236 9.4873C102.148 9.4873 101.242 10.4 101.242 11.4952C101.242 12.5904 102.148 13.503 103.236 13.503Z" fill="url(#paint4_linear_1717_7244)"/>
<path d="M119.55 31.3912C120.275 31.3912 121 30.6611 121 29.931C121 29.2008 120.275 28.4707 119.55 28.4707C118.825 28.4707 118.1 29.2008 118.1 29.931C118.1 30.6611 118.825 31.3912 119.55 31.3912Z" fill="url(#paint5_linear_1717_7244)"/>
<path d="M100.879 17.1543H15.6826V102.58H100.879V17.1543Z" fill="white"/>
<path d="M101.06 17.1543H39.4287V102.58H101.06V17.1543Z" fill="#E6ECF5"/>
<path d="M27.4651 17.1543H15.6826V102.58H27.4651V17.1543Z" fill="url(#paint6_linear_1717_7244)"/>
<path d="M39.4289 102.579H15.6826V102.397L27.6464 90.5322L39.4289 102.579Z" fill="#E6ECF5"/>
<path d="M54.293 36.1378C55.9949 36.1378 57.3746 34.7485 57.3746 33.0347C57.3746 31.3209 55.9949 29.9316 54.293 29.9316C52.5911 29.9316 51.2114 31.3209 51.2114 33.0347C51.2114 34.7485 52.5911 36.1378 54.293 36.1378Z" fill="#B4C2D1"/>
<path d="M84.7461 36.1378C86.448 36.1378 87.8277 34.7485 87.8277 33.0347C87.8277 31.3209 86.448 29.9316 84.7461 29.9316C83.0442 29.9316 81.6646 31.3209 81.6646 33.0347C81.6646 34.7485 83.0442 36.1378 84.7461 36.1378Z" fill="#B4C2D1"/>
<path d="M84.7462 33.2168V41.6133C84.7462 50.1924 77.8579 56.9461 69.5196 56.9461C60.9999 56.9461 54.293 50.0098 54.293 41.6133V33.2168" stroke="white" stroke-width="1.8941" stroke-miterlimit="10" stroke-linecap="round" stroke-linejoin="round"/>
<path opacity="0.7" d="M99.2478 96.9206L53.0243 105.5C52.2992 105.135 51.7554 104.222 51.7554 103.309V75.5642C51.7554 74.104 52.843 73.0088 54.2931 73.0088H96.7101L99.2478 96.9206Z" fill="url(#paint7_linear_1717_7244)"/>
<path d="M111.574 74.2869V101.849C111.574 103.31 110.486 104.405 109.036 104.405H64.2629C62.8127 104.405 61.7251 103.31 61.7251 101.849V74.2869C61.7251 72.8266 62.8127 71.7314 64.2629 71.7314H109.036C110.486 71.7314 111.574 72.8266 111.574 74.2869Z" fill="url(#paint8_linear_1717_7244)"/>
<path d="M111.574 78.668H61.7251V84.6916H111.574V78.668Z" fill="#526DFF"/>
<path d="M90.7281 95.2785H86.1964C85.6526 95.2785 85.29 94.9134 85.29 94.3658C85.29 93.8182 85.6526 93.4531 86.1964 93.4531H90.7281C91.2719 93.4531 91.6345 93.8182 91.6345 94.3658C91.4532 94.9134 91.0906 95.2785 90.7281 95.2785Z" fill="white"/>
<path d="M83.2961 95.2785H67.8883C67.3445 95.2785 66.9819 94.9134 66.9819 94.3658C66.9819 93.8182 67.3445 93.4531 67.8883 93.4531H83.2961C83.8399 93.4531 84.2025 93.8182 84.2025 94.3658C84.2025 94.9134 83.6587 95.2785 83.2961 95.2785Z" fill="white"/>
<path d="M74.7765 98.7462H67.8883C67.3445 98.7462 66.9819 98.3812 66.9819 97.8336C66.9819 97.286 67.3445 96.9209 67.8883 96.9209H74.7765C75.3203 96.9209 75.6828 97.286 75.6828 97.8336C75.6828 98.3812 75.3203 98.7462 74.7765 98.7462Z" fill="white"/>
<path d="M104.323 101.119C106.125 101.119 107.586 99.648 107.586 97.8334C107.586 96.0189 106.125 94.5479 104.323 94.5479C102.521 94.5479 101.061 96.0189 101.061 97.8334C101.061 99.648 102.521 101.119 104.323 101.119Z" fill="#526DFF"/>
<path d="M99.9728 101.119C101.775 101.119 103.236 99.648 103.236 97.8334C103.236 96.0189 101.775 94.5479 99.9728 94.5479C98.1708 94.5479 96.71 96.0189 96.71 97.8334C96.71 99.648 98.1708 101.119 99.9728 101.119Z" fill="white"/>
<defs>
<linearGradient id="paint0_linear_1717_7244" x1="73.7767" y1="25.1455" x2="89.8386" y2="25.1455" gradientUnits="userSpaceOnUse">
<stop offset="0.00289017" stop-color="#E6ECF5"/>
<stop offset="1" stop-color="#CED7E2"/>
</linearGradient>
<linearGradient id="paint1_linear_1717_7244" x1="50.6273" y1="4.64718" x2="50.6273" y2="50.1495" gradientUnits="userSpaceOnUse">
<stop stop-color="#FF66A9"/>
<stop offset="1" stop-color="#F53689"/>
</linearGradient>
<linearGradient id="paint2_linear_1717_7244" x1="57.652" y1="44.6513" x2="55.239" y2="1.19878" gradientUnits="userSpaceOnUse">
<stop stop-color="#FF66A9"/>
<stop offset="1" stop-color="#F53689"/>
</linearGradient>
<linearGradient id="paint3_linear_1717_7244" x1="2.38855" y1="63.7146" x2="6.54632" y2="63.7146" gradientUnits="userSpaceOnUse">
<stop stop-color="#FF66A9"/>
<stop offset="1" stop-color="#F53689"/>
</linearGradient>
<linearGradient id="paint4_linear_1717_7244" x1="101.201" y1="11.4353" x2="105.242" y2="11.4353" gradientUnits="userSpaceOnUse">
<stop stop-color="#83A6FF"/>
<stop offset="1" stop-color="#5A78FF"/>
</linearGradient>
<linearGradient id="paint5_linear_1717_7244" x1="118.086" y1="29.8298" x2="120.951" y2="29.8298" gradientUnits="userSpaceOnUse">
<stop stop-color="#FF66A9"/>
<stop offset="1" stop-color="#F53689"/>
</linearGradient>
<linearGradient id="paint6_linear_1717_7244" x1="21.6592" y1="19.431" x2="21.6592" y2="101.33" gradientUnits="userSpaceOnUse">
<stop offset="0.00289017" stop-color="#E6ECF5"/>
<stop offset="1" stop-color="#CED7E2"/>
</linearGradient>
<linearGradient id="paint7_linear_1717_7244" x1="56.0832" y1="84.6351" x2="96.994" y2="94.6216" gradientUnits="userSpaceOnUse">
<stop offset="0.00289017" stop-color="#606673" stop-opacity="0"/>
<stop offset="1" stop-color="#373C47"/>
</linearGradient>
<linearGradient id="paint8_linear_1717_7244" x1="83.0679" y1="85.5556" x2="112.358" y2="105.758" gradientUnits="userSpaceOnUse">
<stop stop-color="#83A6FF"/>
<stop offset="1" stop-color="#5A78FF"/>
</linearGradient>
</defs>
</svg>
