<svg width="53" height="24" viewBox="0 0 53 24" fill="none" xmlns="http://www.w3.org/2000/svg">
<path fill-rule="evenodd" clip-rule="evenodd" d="M10.4625 3.48135C9.85264 4.25681 8.87681 4.86844 7.90099 4.78107C7.77901 3.73255 8.25676 2.61851 8.81582 1.93042C9.42572 1.13312 10.493 0.565172 11.357 0.521484C11.4587 1.61369 11.0623 2.68404 10.4625 3.48135ZM11.3468 4.98852C10.4871 4.93536 9.70267 5.26632 9.06907 5.53365C8.66133 5.70568 8.31605 5.85136 8.05337 5.85136C7.75858 5.85136 7.39905 5.69789 6.99537 5.52558C6.46643 5.2998 5.8617 5.04167 5.22754 5.05406C3.77397 5.0759 2.42204 5.96058 1.68001 7.36952C0.155281 10.1874 1.28358 14.3596 2.75748 16.6532C3.47919 17.7891 4.3432 19.0342 5.48166 18.9905C5.98252 18.9702 6.3428 18.8059 6.71566 18.6359C7.14493 18.4402 7.59087 18.2369 8.28716 18.2369C8.95931 18.2369 9.38575 18.4349 9.7951 18.625C10.1843 18.8058 10.5581 18.9793 11.113 18.9687C12.2921 18.9468 13.0341 17.8328 13.7558 16.6969C14.5347 15.4778 14.8769 14.288 14.9289 14.1074L14.935 14.0865C14.9337 14.0852 14.9241 14.0805 14.9071 14.0721C14.6468 13.9441 12.6568 12.9652 12.6377 10.3403C12.6186 8.13709 14.2161 7.02081 14.4676 6.84509C14.4829 6.83439 14.4932 6.82718 14.4979 6.82342C13.4814 5.20696 11.8957 5.03221 11.3468 4.98852ZM19.5092 18.8486V1.82116H25.4557C28.5255 1.82116 30.6702 4.09294 30.6702 7.41323C30.6702 10.7335 28.4848 13.0271 25.3744 13.0271H21.9691V18.8486H19.5092ZM21.9689 4.04937H24.8049C26.9395 4.04937 28.1593 5.27263 28.1593 7.42426C28.1593 9.5759 26.9395 10.8101 24.7947 10.8101H21.9689V4.04937ZM38.7921 16.8061C38.1415 18.1386 36.7083 18.9796 35.1632 18.9796C32.8761 18.9796 31.2802 17.516 31.2802 15.3098C31.2802 13.1254 32.8253 11.8694 35.6816 11.6837L38.7514 11.4871V10.5478C38.7514 9.1607 37.9077 8.40709 36.4033 8.40709C35.1632 8.40709 34.2585 9.09517 34.0756 10.1437H31.8596C31.9308 7.93744 33.8621 6.33191 36.4745 6.33191C39.2901 6.33191 41.1198 7.9156 41.1198 10.373V18.8485H38.8429V16.8061H38.7921ZM35.8238 16.9591C34.5125 16.9591 33.679 16.282 33.679 15.2444C33.679 14.174 34.482 13.5515 36.0169 13.4532L38.7513 13.2675V14.2286C38.7513 15.8232 37.4908 16.9591 35.8238 16.9591ZM48.6722 19.5148C47.6862 22.4965 46.5579 23.4795 44.159 23.4795C43.976 23.4795 43.3661 23.4577 43.2238 23.414V21.3716C43.3763 21.3934 43.7524 21.4152 43.9455 21.4152C45.0332 21.4152 45.6431 20.9238 46.0192 19.6459L46.2428 18.8923L42.0752 6.4958H44.6469L47.5439 16.555H47.5947L50.4917 6.4958H52.9923L48.6722 19.5148Z" fill="white"/>
</svg>
