<svg width="22" height="22" viewBox="0 0 22 22" fill="none" xmlns="http://www.w3.org/2000/svg">
<path d="M21 21.75C21.4142 21.75 21.75 21.4142 21.75 21C21.75 20.5858 21.4142 20.25 21 20.25V21.75ZM1 20.25C0.585786 20.25 0.25 20.5858 0.25 21C0.25 21.4142 0.585786 21.75 1 21.75V20.25ZM15.4142 1.58579L14.8839 2.11612L14.8839 2.11612L15.4142 1.58579ZM19.1111 4.33706L18.6945 4.96066V4.96066L19.1111 4.33706ZM19.6629 4.88886L19.0393 5.30554L19.6629 4.88886ZM2.88886 4.33706L3.30554 4.96066L3.30554 4.96066L2.88886 4.33706ZM2.33706 4.88886L2.96066 5.30554H2.96066L2.33706 4.88886ZM10.25 21C10.25 21.4142 10.5858 21.75 11 21.75C11.4142 21.75 11.75 21.4142 11.75 21H10.25ZM11.75 18C11.75 17.5858 11.4142 17.25 11 17.25C10.5858 17.25 10.25 17.5858 10.25 18H11.75ZM9 10.25C8.58579 10.25 8.25 10.5858 8.25 11C8.25 11.4142 8.58579 11.75 9 11.75V10.25ZM13 11.75C13.4142 11.75 13.75 11.4142 13.75 11C13.75 10.5858 13.4142 10.25 13 10.25V11.75ZM4.5 9.25C4.08579 9.25 3.75 9.58579 3.75 10C3.75 10.4142 4.08579 10.75 4.5 10.75V9.25ZM6 10.75C6.41421 10.75 6.75 10.4142 6.75 10C6.75 9.58579 6.41421 9.25 6 9.25V10.75ZM4.5 12.25C4.08579 12.25 3.75 12.5858 3.75 13C3.75 13.4142 4.08579 13.75 4.5 13.75V12.25ZM6 13.75C6.41421 13.75 6.75 13.4142 6.75 13C6.75 12.5858 6.41421 12.25 6 12.25V13.75ZM16 9.25C15.5858 9.25 15.25 9.58579 15.25 10C15.25 10.4142 15.5858 10.75 16 10.75V9.25ZM17.5 10.75C17.9142 10.75 18.25 10.4142 18.25 10C18.25 9.58579 17.9142 9.25 17.5 9.25V10.75ZM16 12.25C15.5858 12.25 15.25 12.5858 15.25 13C15.25 13.4142 15.5858 13.75 16 13.75V12.25ZM17.5 13.75C17.9142 13.75 18.25 13.4142 18.25 13C18.25 12.5858 17.9142 12.25 17.5 12.25V13.75ZM4.5 6.25C4.08579 6.25 3.75 6.58579 3.75 7C3.75 7.41421 4.08579 7.75 4.5 7.75V6.25ZM6 7.75C6.41421 7.75 6.75 7.41421 6.75 7C6.75 6.58579 6.41421 6.25 6 6.25V7.75ZM16 6.25C15.5858 6.25 15.25 6.58579 15.25 7C15.25 7.41421 15.5858 7.75 16 7.75V6.25ZM17.5 7.75C17.9142 7.75 18.25 7.41421 18.25 7C18.25 6.58579 17.9142 6.25 17.5 6.25V7.75ZM9 13.25C8.58579 13.25 8.25 13.5858 8.25 14C8.25 14.4142 8.58579 14.75 9 14.75V13.25ZM13 14.75C13.4142 14.75 13.75 14.4142 13.75 14C13.75 13.5858 13.4142 13.25 13 13.25V14.75ZM21 20.25H1V21.75H21V20.25ZM10 1.75H12V0.25H10V1.75ZM15.25 5V21H16.75V5H15.25ZM6.75 21V5H5.25V21H6.75ZM12 1.75C12.964 1.75 13.6116 1.75159 14.0946 1.81654C14.5561 1.87858 14.7536 1.9858 14.8839 2.11612L15.9445 1.05546C15.4891 0.599986 14.9223 0.414316 14.2945 0.329911C13.6883 0.248407 12.9216 0.25 12 0.25V1.75ZM16.75 5C16.75 4.07839 16.7516 3.31174 16.6701 2.70552C16.5857 2.07773 16.4 1.51093 15.9445 1.05546L14.8839 2.11612C15.0142 2.24643 15.1214 2.44393 15.1835 2.90539C15.2484 3.38843 15.25 4.03599 15.25 5H16.75ZM10 0.25C9.07839 0.25 8.31174 0.248407 7.70552 0.329911C7.07773 0.414316 6.51093 0.599986 6.05546 1.05546L7.11612 2.11612C7.24643 1.9858 7.44393 1.87858 7.90539 1.81654C8.38843 1.75159 9.03599 1.75 10 1.75V0.25ZM6.75 5C6.75 4.03599 6.75159 3.38843 6.81654 2.90539C6.87858 2.44393 6.9858 2.24643 7.11612 2.11612L6.05546 1.05546C5.59999 1.51093 5.41432 2.07773 5.32991 2.70552C5.24841 3.31174 5.25 4.07839 5.25 5H6.75ZM19.25 7.5V21H20.75V7.5H19.25ZM16.5 4.75C17.2178 4.75 17.6998 4.75091 18.0672 4.78828C18.422 4.82438 18.586 4.8882 18.6945 4.96066L19.5278 3.71346C19.1318 3.44886 18.6925 3.34415 18.219 3.29598C17.758 3.24909 17.1866 3.25 16.5 3.25V4.75ZM20.75 7.5C20.75 6.81338 20.7509 6.24196 20.704 5.78102C20.6559 5.30755 20.5511 4.86818 20.2865 4.47218L19.0393 5.30554C19.1118 5.41399 19.1756 5.57796 19.2117 5.93283C19.2491 6.30023 19.25 6.78216 19.25 7.5H20.75ZM18.6945 4.96066C18.8309 5.05186 18.9481 5.16905 19.0393 5.30554L20.2865 4.47218C20.0859 4.17191 19.8281 3.9141 19.5278 3.71346L18.6945 4.96066ZM1.25 7.5V21H2.75V7.5H1.25ZM5.5 3.25C4.81338 3.25 4.24196 3.24909 3.78102 3.29598C3.30755 3.34415 2.86818 3.44886 2.47218 3.71346L3.30554 4.96066C3.41399 4.8882 3.57796 4.82438 3.93283 4.78828C4.30023 4.75091 4.78216 4.75 5.5 4.75V3.25ZM2.75 7.5C2.75 6.78216 2.75091 6.30023 2.78828 5.93283C2.82438 5.57796 2.8882 5.41399 2.96066 5.30554L1.71346 4.47218C1.44886 4.86818 1.34415 5.30755 1.29598 5.78102C1.24909 6.24196 1.25 6.81338 1.25 7.5H2.75ZM2.47218 3.71346C2.17191 3.91409 1.91409 4.17191 1.71346 4.47218L2.96066 5.30554C3.05186 5.16905 3.16905 5.05186 3.30554 4.96066L2.47218 3.71346ZM11.75 21V18H10.25V21H11.75ZM9 11.75H13V10.25H9V11.75ZM4.5 10.75H6V9.25H4.5V10.75ZM4.5 13.75H6V12.25H4.5V13.75ZM16 10.75H17.5V9.25H16V10.75ZM16 13.75H17.5V12.25H16V13.75ZM4.5 7.75H6V6.25H4.5V7.75ZM16 7.75H17.5V6.25H16V7.75ZM9 14.75H13V13.25H9V14.75ZM12.25 6C12.25 6.69036 11.6904 7.25 11 7.25V8.75C12.5188 8.75 13.75 7.51878 13.75 6H12.25ZM11 7.25C10.3096 7.25 9.75 6.69036 9.75 6H8.25C8.25 7.51878 9.48122 8.75 11 8.75V7.25ZM9.75 6C9.75 5.30964 10.3096 4.75 11 4.75V3.25C9.48122 3.25 8.25 4.48122 8.25 6H9.75ZM11 4.75C11.6904 4.75 12.25 5.30964 12.25 6H13.75C13.75 4.48122 12.5188 3.25 11 3.25V4.75Z" fill="#4F5162"/>
</svg>
