<svg width="22" height="28" viewBox="0 0 22 28" fill="none" xmlns="http://www.w3.org/2000/svg">
<path d="M4.85849 15.0377V14.1509H5.66038V15.0377H4.85849ZM4.85849 18.3585V17.4717H5.66038V18.3585H4.85849ZM6.53774 16.5283V15.9811H7.63208V16.5283H6.53774ZM7.63208 15.9906H6.53774C6.53774 15.6887 6.45912 15.456 6.30189 15.2925C6.14465 15.1226 5.92767 15.0377 5.65094 15.0377V14.1509C6.04088 14.1509 6.38365 14.2296 6.67925 14.3868C6.97484 14.544 7.20755 14.761 7.37736 15.0377C7.54717 15.3145 7.63208 15.6321 7.63208 15.9906ZM7.63208 16.5189C7.63208 16.8774 7.54717 17.195 7.37736 17.4717C7.20755 17.7484 6.97484 17.9654 6.67925 18.1226C6.38365 18.2799 6.04088 18.3585 5.65094 18.3585V17.4717C5.92767 17.4717 6.14465 17.3899 6.30189 17.2264C6.45912 17.0566 6.53774 16.8208 6.53774 16.5189H7.63208ZM4 20.8491V14.1509H5.09434V20.8491H4Z" fill="#91929D"/>
<path d="M11.1567 20.8491L8.48688 14.1509H9.48688L12.1473 20.8491H11.1567ZM8.28877 20.8491V14.1509H9.38311V20.8491H8.28877ZM11.4303 20.8491V14.1509H12.5246V20.8491H11.4303Z" fill="#91929D"/>
<path d="M15.2636 18.1038V17.217H17.3297V18.1038H15.2636ZM16.2353 19.1698V17.2453H17.3297V19.1698H16.2353ZM13.3768 19.1604V15.8302H14.4712V19.1604H13.3768ZM13.3768 15.8396C13.3768 15.4811 13.4617 15.1635 13.6316 14.8868C13.8014 14.6101 14.0341 14.3931 14.3297 14.2358C14.6316 14.0786 14.9743 14 15.358 14V14.8868C15.0812 14.8868 14.8643 14.9717 14.707 15.1415C14.5498 15.305 14.4712 15.5377 14.4712 15.8396H13.3768ZM13.3768 19.1604H14.4712C14.4712 19.456 14.5498 19.6887 14.707 19.8585C14.8643 20.022 15.0812 20.1038 15.358 20.1038V21C14.9743 21 14.6316 20.9214 14.3297 20.7642C14.0341 20.6069 13.8014 20.3899 13.6316 20.1132C13.4617 19.8365 13.3768 19.5189 13.3768 19.1604ZM16.3863 16.1038C16.3548 15.7264 16.2479 15.4308 16.0655 15.217C15.8831 14.9969 15.6441 14.8868 15.3485 14.8868V14C15.9209 14 16.3863 14.1698 16.7448 14.5094C17.1033 14.8428 17.314 15.3145 17.3768 15.9245L16.3863 16.1038ZM17.3297 19.1604C17.3297 19.5189 17.2448 19.8365 17.075 20.1132C16.9051 20.3899 16.6724 20.6069 16.3768 20.7642C16.0812 20.9214 15.7385 21 15.3485 21V20.1038C15.6253 20.1038 15.8423 20.022 15.9995 19.8585C16.1567 19.6887 16.2353 19.456 16.2353 19.1604H17.3297Z" fill="#91929D"/>
<path d="M20.8957 8.25234L13.1207 0.582422C12.9948 0.459375 12.8576 0.355469 12.7093 0.267969C12.6701 0.246094 12.6309 0.224219 12.5889 0.205078C12.5637 0.191406 12.5358 0.180469 12.5106 0.169531C12.2587 0.0601562 11.9816 0 11.6989 0H2.04311C0.929196 0 0 0.880469 0 1.96875V26.0312C0 27.1195 0.929196 28 2.04311 28H19.4795C20.5934 28 21.4667 27.1195 21.4667 26.0312V9.63867C21.4667 9.11914 21.2708 8.62148 20.8957 8.25234ZM12.7345 3.01875L18.3544 8.53125H12.7345V3.01875ZM19.4515 26.0312H2.01512V1.96875H10.7193V8.53125C10.7193 9.61953 11.6485 10.5 12.7625 10.5H19.4515V26.0312Z" fill="#91929D"/>
</svg>
