<svg width="31" height="32" viewBox="0 0 31 32" fill="none" xmlns="http://www.w3.org/2000/svg">
<path d="M9.15773 25.2932C6.3988 25.2778 4.90467 25.1555 3.93 24.1808C2.81543 23.0662 2.81543 21.2724 2.81543 17.6846L2.81543 12.6108C2.81543 9.02302 2.81543 7.22914 3.93 6.11457C5.04457 5 6.83845 5 10.4262 5L20.5739 5C24.1616 5 25.9555 5 27.0701 6.11457C28.1846 7.22914 28.1846 9.02302 28.1846 12.6108V17.6846C28.1846 21.2724 28.1846 23.0662 27.0701 24.1808C26.1443 25.1066 24.7498 25.2634 22.2478 25.29L21.2081 25.2932" stroke="#D3D4D8" stroke-width="1.47727"/>
<path d="M11.6943 10.0737L19.3051 10.0737" stroke="#D3D4D8" stroke-width="1.47727" stroke-linecap="round"/>
<path d="M9.15723 14.5137H21.8418" stroke="#D3D4D8" stroke-width="1.47727" stroke-linecap="round"/>
<path d="M14.0921 20.152C14.903 19.461 16.0956 19.461 16.9064 20.152C17.2539 20.4482 17.6859 20.6271 18.141 20.6634C19.203 20.7482 20.0463 21.5915 20.131 22.6534C20.1674 23.1085 20.3463 23.5406 20.6424 23.888C21.3334 24.6989 21.3334 25.8915 20.6424 26.7023C20.3463 27.0498 20.1674 27.4818 20.131 27.9369C20.0463 28.9989 19.203 29.8422 18.141 29.9269C17.6859 29.9633 17.2539 30.1422 16.9064 30.4383C16.0956 31.1293 14.903 31.1293 14.0921 30.4383C13.7447 30.1422 13.3126 29.9633 12.8575 29.9269C11.7956 29.8422 10.9523 28.9989 10.8675 27.9369C10.8312 27.4818 10.6523 27.0498 10.3561 26.7023C9.66514 25.8915 9.66514 24.6989 10.3561 23.888C10.6523 23.5406 10.8312 23.1085 10.8675 22.6534C10.9523 21.5915 11.7956 20.7482 12.8575 20.6634C13.3126 20.6271 13.7447 20.4482 14.0921 20.152Z" stroke="#D3D4D8" stroke-width="1.47727"/>
<path d="M13.5977 25.549L14.6849 26.5638L17.403 24.0269" stroke="#D3D4D8" stroke-width="1.47727" stroke-linecap="round" stroke-linejoin="round"/>
</svg>
