<svg width="22" height="22" viewBox="0 0 22 22" fill="none" xmlns="http://www.w3.org/2000/svg">
<g clip-path="url(#clip0_2156_2849)">
<rect width="22" height="22" rx="3" fill="white"/>
<path d="M15.1417 8.60862H12.3804L10.9998 6.21732L9.6193 8.60862H6.85796L8.23872 10.9999L6.85796 13.3912H9.6193L10.9998 15.7825L12.3804 13.3912H15.1417L13.761 10.9999L15.1417 8.60862ZM12.696 10.9999L11.848 12.4689H10.1518L9.30365 10.9999L10.1518 9.5309H11.848L12.696 10.9999ZM10.9998 8.06184L11.3155 8.60857H10.6843L10.9998 8.06184ZM8.45549 9.5309H9.08679L8.77114 10.0776L8.45549 9.5309ZM8.45549 12.4689L8.77118 11.9222L9.08683 12.4689H8.45549ZM10.9998 13.9379L10.6842 13.3912H11.3155L10.9998 13.9379ZM13.5442 12.4689H12.9129L13.2286 11.9222L13.5442 12.4689ZM12.9129 9.5309H13.5442L13.2285 10.0776L12.9129 9.5309Z" fill="#0052B4"/>
<path d="M24.6428 2.75H-2.64315C-4.64332 3.36299 -6.35865 4.10756 -7.7002 4.95H29.6998C28.3582 4.10759 26.6428 3.36299 24.6428 2.75Z" fill="#0052B4"/>
<path d="M-2.64314 19.25H24.6427C26.6429 18.637 28.3582 17.8924 29.6998 17.05H-7.7002C-6.35856 17.8924 -4.64322 18.637 -2.64314 19.25Z" fill="#0052B4"/>
</g>
<defs>
<clipPath id="clip0_2156_2849">
<rect width="22" height="22" rx="3" fill="white"/>
</clipPath>
</defs>
</svg>
