<svg width="42" height="14" viewBox="0 0 42 14" fill="none" xmlns="http://www.w3.org/2000/svg">
<path fill-rule="evenodd" clip-rule="evenodd" d="M18.2002 13.0472H14.7979L16.9259 0.232422H20.3281L18.2002 13.0472Z" fill="#0742A6"/>
<path fill-rule="evenodd" clip-rule="evenodd" d="M30.5352 0.545575C29.8641 0.286286 28.7997 0 27.4836 0C24.1236 0 21.7576 1.7449 21.7431 4.23957C21.7152 6.08014 23.4371 7.10244 24.725 7.71614C26.0413 8.34325 26.4887 8.75257 26.4887 9.31155C26.4753 10.1701 25.4251 10.5658 24.4455 10.5658C23.0871 10.5658 22.3593 10.3618 21.2532 9.88413L20.8052 9.67938L20.3291 12.556C21.1271 12.9101 22.5973 13.2243 24.1236 13.238C27.6936 13.238 30.0178 11.5201 30.0453 8.86165C30.0589 7.40286 29.1496 6.28507 27.1894 5.37167C25.9994 4.78533 25.2706 4.38997 25.2706 3.79003C25.2846 3.24464 25.887 2.68602 27.2303 2.68602C28.3364 2.65866 29.1491 2.91758 29.7647 3.17669L30.0725 3.31277L30.5352 0.545575Z" fill="#0742A6"/>
<path fill-rule="evenodd" clip-rule="evenodd" d="M36.624 0.232422H39.2557L42.0005 13.047H38.8503C38.8503 13.047 38.542 11.5746 38.4443 11.1247H34.076C33.9497 11.4654 33.362 13.047 33.362 13.047H29.792L34.8457 1.29567C35.1959 0.463988 35.8125 0.232422 36.624 0.232422ZM36.415 4.9219C36.415 4.9219 35.3368 7.77118 35.0566 8.50737H37.8846C37.7447 7.86667 37.1004 4.79923 37.1004 4.79923L36.8626 3.69504C36.7625 3.97937 36.6177 4.37028 36.5201 4.63395C36.4538 4.81269 36.4093 4.93296 36.415 4.9219Z" fill="#0742A6"/>
<path fill-rule="evenodd" clip-rule="evenodd" d="M11.9567 0.232422L8.6247 8.97086L8.2606 7.1986C7.64458 5.15365 5.71261 2.93185 3.55664 1.82711L6.60864 13.0336H10.2065L15.5544 0.232422H11.9567V0.232422Z" fill="#0742A6"/>
<path fill-rule="evenodd" clip-rule="evenodd" d="M5.53003 0.232422H0.0560017L0 0.491348C4.27008 1.55477 7.09807 4.11812 8.25997 7.19915L7.06998 1.30962C6.87407 0.491167 6.272 0.25942 5.53003 0.232422Z" fill="#0742A6"/>
</svg>
