<svg width="39" height="38" viewBox="0 0 39 38" fill="none" xmlns="http://www.w3.org/2000/svg">
<path d="M3.66699 18.9997C3.66699 13.0286 3.66699 10.043 5.52198 8.188C7.37697 6.33301 10.3625 6.33301 16.3337 6.33301H22.667C28.6381 6.33301 31.6237 6.33301 33.4787 8.188C35.3337 10.043 35.3337 13.0286 35.3337 18.9997C35.3337 24.9708 35.3337 27.9564 33.4787 29.8113C31.6237 31.6663 28.6381 31.6663 22.667 31.6663H16.3337C10.3625 31.6663 7.37697 31.6663 5.52198 29.8113C3.66699 27.9564 3.66699 24.9708 3.66699 18.9997Z" stroke="white" stroke-width="1.5"/>
<path d="M10 12.666L13.4183 15.5146C16.3263 17.9379 17.7803 19.1496 19.5 19.1496C21.2197 19.1496 22.6737 17.9379 25.5818 15.5146L29 12.666" stroke="white" stroke-width="1.5" stroke-linecap="round"/>
</svg>
