<svg width="20" height="20" viewBox="0 0 20 20" fill="none" xmlns="http://www.w3.org/2000/svg">
<path d="M1.9842 14.2572L1.25085 14.4143L1.9842 14.2572ZM18.0168 14.2572L17.2835 14.1V14.1L18.0168 14.2572ZM18.4454 12.2572L19.1788 12.4143V12.4143L18.4454 12.2572ZM1.55563 12.2572L2.28899 12.1L1.55563 12.2572ZM1.00052 8.25C0.58631 8.25 0.250523 8.58579 0.250523 9C0.250523 9.41421 0.58631 9.75 1.00052 9.75V8.25ZM19.0005 9.75C19.4147 9.75 19.7505 9.41421 19.7505 9C19.7505 8.58579 19.4147 8.25 19.0005 8.25V9.75ZM8.00052 11.25C7.58631 11.25 7.25052 11.5858 7.25052 12C7.25052 12.4142 7.58631 12.75 8.00052 12.75V11.25ZM12.0005 12.75C12.4147 12.75 12.7505 12.4142 12.7505 12C12.7505 11.5858 12.4147 11.25 12.0005 11.25V12.75ZM15.3297 7.33541C15.5149 7.70589 15.9654 7.85606 16.3359 7.67082C16.7064 7.48558 16.8566 7.03507 16.6713 6.66459L15.3297 7.33541ZM13.6713 0.66459C13.4861 0.294106 13.0356 0.143938 12.6651 0.32918C12.2946 0.514422 12.1445 0.964926 12.3297 1.33541L13.6713 0.66459ZM3.3297 6.66459C3.14446 7.03507 3.29463 7.48558 3.66511 7.67082C4.0356 7.85606 4.4861 7.70589 4.67134 7.33541L3.3297 6.66459ZM7.67134 1.33541C7.85659 0.964926 7.70642 0.514422 7.33593 0.32918C6.96545 0.143938 6.51494 0.294106 6.3297 0.66459L7.67134 1.33541ZM7.42245 5.75H12.5786V4.25H7.42245V5.75ZM17.7121 12.1L17.2835 14.1L18.7502 14.4143L19.1788 12.4143L17.7121 12.1ZM12.15 18.25H7.85102V19.75H12.15V18.25ZM2.71756 14.1L2.28899 12.1L0.822281 12.4143L1.25085 14.4143L2.71756 14.1ZM7.85102 18.25C6.67026 18.25 5.85229 18.2487 5.22395 18.1721C4.61599 18.098 4.27368 17.9619 4.01125 17.7497L3.06823 18.9162C3.63087 19.3711 4.28213 19.5685 5.0425 19.6611C5.78251 19.7513 6.70764 19.75 7.85102 19.75V18.25ZM1.25085 14.4143C1.49042 15.5323 1.683 16.4372 1.92623 17.1419C2.17615 17.866 2.50559 18.4614 3.06823 18.9162L4.01125 17.7497C3.74882 17.5376 3.54397 17.2314 3.34414 16.6525C3.13762 16.0541 2.96496 15.2546 2.71756 14.1L1.25085 14.4143ZM17.2835 14.1C17.0361 15.2546 16.8634 16.0541 16.6569 16.6525C16.4571 17.2314 16.2522 17.5376 15.9898 17.7497L16.9328 18.9162C17.4955 18.4614 17.8249 17.866 18.0748 17.1419C18.3181 16.4372 18.5106 15.5323 18.7502 14.4143L17.2835 14.1ZM12.15 19.75C13.2934 19.75 14.2185 19.7513 14.9585 19.6611C15.7189 19.5685 16.3702 19.3711 16.9328 18.9162L15.9898 17.7497C15.7274 17.9619 15.3851 18.098 14.7771 18.1721C14.1488 18.2487 13.3308 18.25 12.15 18.25V19.75ZM12.5786 5.75C14.3164 5.75 15.5381 5.75184 16.4421 5.88163C17.326 6.00854 17.7597 6.23966 18.0393 6.58548L19.2058 5.64246C18.5848 4.87431 17.711 4.54844 16.6553 4.39686C15.6197 4.24816 14.2697 4.25 12.5786 4.25V5.75ZM19.1788 12.4143C19.5331 10.7607 19.8178 9.44111 19.8894 8.39732C19.9623 7.33328 19.8268 6.41061 19.2058 5.64246L18.0393 6.58548C18.3189 6.9313 18.454 7.40382 18.3929 8.29467C18.3304 9.20579 18.0762 10.4008 17.7121 12.1L19.1788 12.4143ZM7.42245 4.25C5.73132 4.25 4.38134 4.24816 3.34573 4.39686C2.29001 4.54844 1.41622 4.87431 0.795237 5.64246L1.96174 6.58548C2.2413 6.23966 2.67503 6.00854 3.55891 5.88163C4.4629 5.75184 5.68463 5.75 7.42245 5.75V4.25ZM2.28899 12.1C1.92486 10.4008 1.67067 9.2058 1.60817 8.29468C1.54706 7.40382 1.68217 6.93129 1.96174 6.58548L0.795237 5.64246C0.174254 6.41061 0.0387014 7.33328 0.111688 8.39732C0.183286 9.44111 0.467941 10.7607 0.822281 12.4143L2.28899 12.1ZM1.00052 9.75H19.0005V8.25H1.00052V9.75ZM8.00052 12.75H12.0005V11.25H8.00052V12.75ZM16.6713 6.66459L13.6713 0.66459L12.3297 1.33541L15.3297 7.33541L16.6713 6.66459ZM4.67134 7.33541L7.67134 1.33541L6.3297 0.66459L3.3297 6.66459L4.67134 7.33541Z" fill="#4F5162"/>
</svg>
