<svg width="62" height="17" viewBox="0 0 62 17" fill="none" xmlns="http://www.w3.org/2000/svg">
<path d="M8.51823 4.78592C8.29842 6.43452 6.97954 6.43452 5.77056 6.43452H5.11112L5.66065 3.24722C5.66065 3.02741 5.88046 2.9175 6.10027 2.9175H6.43001C7.30927 2.9175 8.07861 2.91751 8.51823 3.35713C8.51823 3.79676 8.51823 4.23639 8.51823 4.78592ZM7.9687 0.389648H3.2427C2.91298 0.389648 2.69318 0.609462 2.58327 0.939183L0.714844 13.0289C0.714844 13.2487 0.824761 13.4686 1.15448 13.4686H3.35262C3.68234 13.4686 3.90214 13.2487 4.01205 12.919L4.56158 9.62182C4.56158 9.2921 4.89131 9.07229 5.22103 9.07229H6.75972C9.83711 9.07229 11.5956 7.53359 12.1451 4.56611C12.365 3.24722 12.1451 2.25806 11.5956 1.48872C10.7164 0.829276 9.50739 0.389648 7.9687 0.389648Z" fill="white"/>
<path d="M18.8501 9.18249C18.6303 10.5014 17.6411 11.3806 16.3222 11.3806C15.6628 11.3806 15.1133 11.1608 14.7835 10.7212C14.4538 10.2816 14.3439 9.73203 14.4538 9.18249C14.6736 7.86361 15.6628 6.98436 16.9817 6.98436C17.6411 6.98436 18.1906 7.20417 18.5204 7.6438C18.7402 7.97352 18.96 8.52305 18.8501 9.18249ZM21.9275 4.78622H19.7293C19.5095 4.78622 19.3996 4.89613 19.2897 5.11594L19.1798 5.77538L19.0699 5.55557C18.6303 4.89613 17.5312 4.56641 16.4321 4.56641C13.9043 4.56641 11.816 6.43482 11.3764 9.07259C11.1566 10.3915 11.4863 11.6004 12.2557 12.4797C12.9151 13.249 13.9043 13.5788 15.1132 13.5788C17.0916 13.5788 18.1906 12.2599 18.1906 12.2599L18.0807 12.9193C18.0807 13.1391 18.1906 13.359 18.5204 13.359H20.4987C20.8284 13.359 21.0482 13.1391 21.1581 12.8094L22.3671 5.11594C22.3671 5.00603 22.2572 4.78622 21.9275 4.78622Z" fill="white"/>
<path d="M33.9069 4.78613H31.5989C31.379 4.78613 31.1592 4.89604 31.0493 5.11585L27.9719 9.73194L26.653 5.33567C26.5431 5.00595 26.3233 4.89604 25.9936 4.89604H23.7955C23.5757 4.89604 23.3559 5.11585 23.4658 5.44557L25.9936 12.6994L23.6856 15.9966C23.4657 16.2164 23.6856 16.6561 24.0153 16.6561H26.3233C26.5432 16.6561 26.763 16.5462 26.8729 16.3263L34.3465 5.44557C34.4564 5.11585 34.2366 4.78613 33.9069 4.78613Z" fill="white"/>
<path d="M41.9303 4.78592C41.7105 6.43452 40.3916 6.43452 39.1827 6.43452H38.5232L39.0728 3.24722C39.0728 3.02741 39.2926 2.9175 39.5124 2.9175H39.8421C40.7214 2.9175 41.4907 2.91751 41.9303 3.35713C42.0403 3.79676 42.0403 4.23639 41.9303 4.78592ZM41.3808 0.389648H36.6548C36.3251 0.389648 36.1053 0.609462 35.9954 0.939183L34.127 13.0289C34.127 13.2487 34.2369 13.4686 34.5666 13.4686H36.9845C37.2044 13.4686 37.4242 13.3587 37.4242 13.0289L37.9737 9.62182C37.9737 9.2921 38.3034 9.07229 38.6331 9.07229H40.1718C43.2492 9.07229 45.0078 7.53359 45.5573 4.56611C45.7771 3.24722 45.5573 2.25806 45.0078 1.48872C44.2384 0.829276 43.0294 0.389648 41.3808 0.389648Z" fill="#2199D6"/>
<path d="M52.3716 9.18249C52.1517 10.5014 51.1626 11.3806 49.8437 11.3806C49.1843 11.3806 48.6347 11.1608 48.305 10.7212C47.9753 10.2816 47.8654 9.73203 47.9753 9.18249C48.1951 7.86361 49.1843 6.98436 50.5032 6.98436C51.1626 6.98436 51.7121 7.20417 52.0419 7.6438C52.2617 7.97352 52.4815 8.52305 52.3716 9.18249ZM55.449 4.78622H53.2508C53.031 4.78622 52.9211 4.89613 52.8112 5.11594L52.7013 5.77538L52.5914 5.55557C52.1518 4.89613 51.0527 4.56641 49.9536 4.56641C47.4258 4.56641 45.3375 6.43482 44.8979 9.07259C44.6781 10.3915 45.0078 11.6004 45.7771 12.4797C46.4366 13.249 47.4258 13.5788 48.6347 13.5788C50.6131 13.5788 51.7121 12.2599 51.7121 12.2599L51.6022 12.9193C51.6022 13.1391 51.7121 13.359 52.0419 13.359H54.0202C54.3499 13.359 54.5697 13.1391 54.6796 12.8094L55.8886 5.11594C55.8886 5.00603 55.6688 4.78622 55.449 4.78622Z" fill="#2199D6"/>
<path d="M58.0867 0.719368L56.1084 13.0289C56.1084 13.2487 56.2183 13.4686 56.5481 13.4686H58.5264C58.8561 13.4686 59.0759 13.2487 59.1858 12.919L61.0542 0.829277C61.0542 0.609464 60.9443 0.389648 60.6146 0.389648H58.4164C58.3065 0.389648 58.1966 0.609461 58.0867 0.719368Z" fill="#2199D6"/>
</svg>
