<svg width="40" height="24" viewBox="0 0 40 24" fill="none" xmlns="http://www.w3.org/2000/svg">
<path d="M14.6053 12.3197C14.2816 12.259 14.2816 11.7383 14.6053 11.6801L23.912 9.95605C24.5164 9.81449 24.9984 9.30889 25.1614 8.64404L27.0558 0.918601C27.2006 0.332115 26.671 -0.18106 26.1708 0.0616236L0.522928 11.4223C0.0566864 11.6296 0.0566864 12.3677 0.522928 12.5725L26.1708 23.9382C26.671 24.1809 27.2006 23.6702 27.0558 23.0812L25.1614 15.3558C24.9984 14.6909 24.5164 14.1853 23.912 14.0438L14.6053 12.3197Z" fill="white"/>
<path opacity="0.5" d="M31.9607 7.04327H39.0435C39.4766 7.04327 39.8262 6.7045 39.8262 6.28482C39.8262 5.86514 39.4766 5.52637 39.0435 5.52637H31.9607C31.5276 5.52637 31.1781 5.86514 31.1781 6.28482C31.1781 6.7045 31.5276 7.04327 31.9607 7.04327ZM31.1781 17.7172C31.1781 17.2976 31.5276 16.9588 31.9607 16.9588H39.0435C39.4766 16.9588 39.8262 17.2976 39.8262 17.7172C39.8262 18.1369 39.4766 18.4757 39.0435 18.4757H31.9607C31.5276 18.4757 31.1781 18.1344 31.1781 17.7172ZM28.5693 12.001C28.5693 11.5814 28.9188 11.2426 29.3519 11.2426H36.4348C36.8678 11.2426 37.2174 11.5814 37.2174 12.001C37.2174 12.4207 36.8678 12.7595 36.4348 12.7595H29.3519C28.9188 12.7595 28.5693 12.4182 28.5693 12.001Z" fill="#E8F0FF"/>
</svg>
