<svg width="22" height="21" viewBox="0 0 22 21" fill="none" xmlns="http://www.w3.org/2000/svg">
<path d="M5 7.25C4.58579 7.25 4.25 7.58579 4.25 8C4.25 8.41421 4.58579 8.75 5 8.75V7.25ZM9 8.75C9.41421 8.75 9.75 8.41421 9.75 8C9.75 7.58579 9.41421 7.25 9 7.25V8.75ZM19.9935 14.9979L20.0391 15.7465L20.0391 15.7465L19.9935 14.9979ZM20.9977 14.0654L21.7458 14.1182V14.1182L20.9977 14.0654ZM19.9935 9.00214L19.9479 9.75076L19.9935 9.00214ZM20.9977 9.9346L21.7458 9.88179V9.88179L20.9977 9.9346ZM18.8284 18.8284L19.3588 19.3588L18.8284 18.8284ZM18.8284 5.17157L19.3588 4.64124V4.64124L18.8284 5.17157ZM2.17157 5.17157L1.64124 4.64124L2.17157 5.17157ZM2.17157 18.8284L2.7019 18.2981H2.7019L2.17157 18.8284ZM19.2157 9.03112C19.2329 9.44498 19.5823 9.76654 19.9962 9.74935C20.41 9.73217 20.7316 9.38274 20.7144 8.96888L19.2157 9.03112ZM20.7144 15.0311C20.7316 14.6173 20.41 14.2678 19.9962 14.2507C19.5823 14.2335 19.2329 14.555 19.2157 14.9689L20.7144 15.0311ZM4.58554 3.37492C4.24032 3.60383 4.14602 4.06925 4.37492 4.41446C4.60383 4.75968 5.06925 4.85398 5.41446 4.62508L4.58554 3.37492ZM8.73549 1.52313L8.32102 0.898058V0.898058L8.73549 1.52313ZM12.2645 1.52313L11.85 2.14821L12.2645 1.52313ZM15.5855 4.62508C15.9308 4.85398 16.3962 4.75968 16.6251 4.41446C16.854 4.06925 16.7597 3.60383 16.4145 3.37492L15.5855 4.62508ZM5 8.75H9V7.25H5V8.75ZM17.2308 9.75H19.8333V8.25H17.2308V9.75ZM19.8333 14.25H17.2308V15.75H19.8333V14.25ZM20.25 10.0833V13.9167H21.75V10.0833H20.25ZM17.2308 14.25C15.8074 14.25 14.75 13.1913 14.75 12H13.25C13.25 14.1224 15.0856 15.75 17.2308 15.75V14.25ZM19.8333 15.75C19.9056 15.75 19.9754 15.7503 20.0391 15.7465L19.948 14.2492C19.9482 14.2492 19.943 14.2496 19.9235 14.2498C19.9032 14.25 19.8766 14.25 19.8333 14.25V15.75ZM20.25 13.9167C20.25 13.9572 20.25 13.9808 20.2498 13.9986C20.2496 14.0153 20.2493 14.0169 20.2496 14.0126L21.7458 14.1182C21.7505 14.0525 21.75 13.9813 21.75 13.9167H20.25ZM20.0391 15.7465C20.9104 15.6934 21.681 15.0362 21.7458 14.1182L20.2496 14.0126C20.2437 14.0961 20.1551 14.2366 19.9479 14.2492L20.0391 15.7465ZM19.8333 9.75C19.8766 9.75 19.9032 9.75001 19.9235 9.75023C19.943 9.75043 19.9482 9.75077 19.9479 9.75076L20.0391 8.25353C19.9754 8.24965 19.9056 8.25 19.8333 8.25V9.75ZM21.75 10.0833C21.75 10.0187 21.7505 9.94747 21.7458 9.88179L20.2496 9.9874C20.2493 9.98308 20.2496 9.98468 20.2498 10.0014C20.25 10.0192 20.25 10.0428 20.25 10.0833H21.75ZM19.9479 9.75076C20.1551 9.76337 20.2437 9.90388 20.2496 9.9874L21.7458 9.88179C21.681 8.9638 20.9104 8.30656 20.0391 8.25353L19.9479 9.75076ZM17.2308 8.25C15.0856 8.25 13.25 9.87756 13.25 12H14.75C14.75 10.8087 15.8074 9.75 17.2308 9.75V8.25ZM17.25 12C17.25 12.1381 17.1381 12.25 17 12.25V13.75C17.9665 13.75 18.75 12.9665 18.75 12H17.25ZM17 12.25C16.8619 12.25 16.75 12.1381 16.75 12H15.25C15.25 12.9665 16.0335 13.75 17 13.75V12.25ZM16.75 12C16.75 11.8619 16.8619 11.75 17 11.75V10.25C16.0335 10.25 15.25 11.0335 15.25 12H16.75ZM17 11.75C17.1381 11.75 17.25 11.8619 17.25 12H18.75C18.75 11.0335 17.9665 10.25 17 10.25V11.75ZM9 4.75H12V3.25H9V4.75ZM12 19.25H9V20.75H12V19.25ZM12 20.75C13.8644 20.75 15.3382 20.7516 16.489 20.5969C17.6614 20.4392 18.6104 20.1071 19.3588 19.3588L18.2981 18.2981C17.8749 18.7213 17.2952 18.975 16.2892 19.1102C15.2615 19.2484 13.9068 19.25 12 19.25V20.75ZM12 4.75C13.9068 4.75 15.2615 4.75159 16.2892 4.88976C17.2952 5.02502 17.8749 5.27869 18.2981 5.7019L19.3588 4.64124C18.6104 3.89288 17.6614 3.56076 16.489 3.40313C15.3382 3.24841 13.8644 3.25 12 3.25V4.75ZM1.75 12C1.75 10.0932 1.75159 8.73851 1.88976 7.71085C2.02502 6.70476 2.27869 6.12511 2.7019 5.7019L1.64124 4.64124C0.892879 5.38961 0.560762 6.33856 0.403134 7.51098C0.248407 8.66182 0.25 10.1356 0.25 12H1.75ZM9 3.25C7.13558 3.25 5.66182 3.24841 4.51098 3.40313C3.33855 3.56076 2.38961 3.89288 1.64124 4.64124L2.7019 5.7019C3.12511 5.27869 3.70476 5.02502 4.71085 4.88976C5.73851 4.75159 7.09318 4.75 9 4.75V3.25ZM0.25 12C0.25 13.8644 0.248407 15.3382 0.403135 16.489C0.560763 17.6614 0.89288 18.6104 1.64124 19.3588L2.7019 18.2981C2.27869 17.8749 2.02502 17.2952 1.88976 16.2892C1.75159 15.2615 1.75 13.9068 1.75 12H0.25ZM9 19.25C7.09318 19.25 5.73851 19.2484 4.71085 19.1102C3.70476 18.975 3.12511 18.7213 2.7019 18.2981L1.64124 19.3588C2.38961 20.1071 3.33856 20.4392 4.51098 20.5969C5.66182 20.7516 7.13558 20.75 9 20.75V19.25ZM20.7144 8.96888C20.6363 7.08743 20.3876 5.67009 19.3588 4.64124L18.2981 5.7019C18.8856 6.2894 19.1383 7.16796 19.2157 9.03112L20.7144 8.96888ZM19.2157 14.9689C19.1383 16.832 18.8856 17.7106 18.2981 18.2981L19.3588 19.3588C20.3876 18.3299 20.6363 16.9126 20.7144 15.0311L19.2157 14.9689ZM5.41446 4.62508L9.14995 2.14821L8.32102 0.898058L4.58554 3.37492L5.41446 4.62508ZM11.85 2.14821L15.5855 4.62508L16.4145 3.37492L12.679 0.898059L11.85 2.14821ZM9.14995 2.14821C9.95069 1.61726 11.0493 1.61726 11.85 2.14821L12.679 0.898059C11.3758 0.0339807 9.62418 0.0339804 8.32102 0.898058L9.14995 2.14821Z" fill="#4F5162"/>
</svg>
