<svg width="31" height="31" viewBox="0 0 31 31" fill="none" xmlns="http://www.w3.org/2000/svg">
<path d="M19.5284 15.1989L16.2487 11.6277L12.6045 14.8345L15.8842 18.4787L19.5284 15.1989Z" fill="#137ABE"/>
<path d="M9.98075 8.7124L13.2605 12.2836L16.9046 9.07681L13.6249 5.50556L9.98075 8.7124Z" fill="#137ABE"/>
<path d="M22.0793 21.394L18.7995 17.8227L15.1554 21.1024L18.4351 24.6737L22.0793 21.394Z" fill="#137ABE"/>
<path d="M18.2894 27.3703L12.313 20.738L13.9893 19.2804L9.7621 14.6159L11.4384 13.1582L7.21121 8.49375L13.8435 2.59026L15.9571 4.84962L19.6013 1.71567L21.7148 3.90215L23.0996 2.66314C22.8081 2.51738 22.4437 2.29873 22.1521 2.15296C20.0385 1.27837 17.7792 0.695312 15.3741 0.695312C6.99256 0.695312 0.141602 7.47339 0.141602 15.782C0.141602 24.0906 6.99256 30.8687 15.4469 30.8687C18.2165 30.8687 20.7674 30.1399 22.9538 28.9009C23.6827 28.4636 24.3386 28.0263 24.9946 27.589L21.9335 24.1635L18.2894 27.3703Z" fill="#137ABE"/>
<path d="M16.6859 6.96322L19.0911 9.65987L21.8606 7.25475L19.3826 4.55809L16.6859 6.96322Z" fill="#137ABE"/>
<path d="M24.3386 12.6481L21.8606 9.9514L19.164 12.4294L21.642 15.0532L24.3386 12.6481Z" fill="#137ABE"/>
<path d="M26.6709 18.3329L24.1929 15.6362L21.4962 18.0414L23.9742 20.8109L26.6709 18.3329Z" fill="#137ABE"/>
<path d="M26.8166 9.44122L24.9946 11.0446L26.6709 12.8667L28.42 11.2633L26.8166 9.44122Z" fill="#137ABE"/>
<path d="M27.3268 16.3651L28.9302 18.1871L30.7523 16.5837L29.076 14.7617L27.3268 16.3651Z" fill="#137ABE"/>
<path d="M22.6623 5.72421L24.3386 7.54628L26.0878 5.94286L24.4844 4.12079L22.6623 5.72421Z" fill="#137ABE"/>
<path d="M23.9013 23.5076L26.3793 26.2042L29.076 23.7991L26.598 21.1024L23.9013 23.5076Z" fill="#137ABE"/>
</svg>
