<svg width="18" height="19" viewBox="0 0 18 19" fill="none" xmlns="http://www.w3.org/2000/svg">
<path d="M4.96605 16.1213C5.37742 16.6557 6.0235 17 6.75 17H9.75C12.5784 17 13.9926 17 14.8713 16.1213C15.75 15.2426 15.75 13.8284 15.75 11V6.5C15.75 5.7735 15.4057 5.12742 14.8713 4.71605M9 2L6.75 2C4.62868 2 3.56802 2 2.90901 2.65901C2.25 3.31802 2.25 4.37868 2.25 6.5L2.25 10.25C2.25 12.3713 2.25 13.432 2.90901 14.091C3.56802 14.75 4.62868 14.75 6.75 14.75H9C11.1213 14.75 12.182 14.75 12.841 14.091C13.5 13.432 13.5 12.3713 13.5 10.25V6.5C13.5 4.37868 13.5 3.31802 12.841 2.65901C12.182 2 11.1213 2 9 2Z" stroke="#91929D" stroke-linecap="round"/>
</svg>
