<svg width="127" height="112" viewBox="0 0 127 112" fill="none" xmlns="http://www.w3.org/2000/svg">
<path d="M124.369 58.1234C124.369 70.3176 120.278 81.625 113.423 90.7152C109.663 95.5929 105.13 99.9163 99.933 103.242C91.5295 108.785 81.4675 112 70.6315 112C40.8878 111.889 16.7832 87.7221 16.7832 58.1234C16.7832 28.3029 40.8878 4.24707 70.521 4.24707C81.357 4.24707 91.419 7.46191 99.8224 12.8939C105.019 16.2196 109.553 20.543 113.312 25.4207C120.278 34.5109 124.369 45.8183 124.369 58.1234Z" fill="#EAEEF9"/>
<path d="M8.37972 64.3316C9.37486 64.3316 10.2594 63.5556 10.2594 62.4471C10.2594 61.4493 9.48543 60.5625 8.37972 60.5625C7.274 60.6734 6.5 61.4494 6.5 62.5579C6.5 63.5556 7.274 64.3316 8.37972 64.3316Z" fill="url(#paint0_linear_1717_9727)"/>
<path d="M19.5477 105.238C20.5428 105.238 21.4274 104.462 21.4274 103.353C21.4274 102.356 20.6534 101.469 19.5477 101.469C18.5525 101.469 17.668 102.245 17.668 103.353C17.7785 104.462 18.5525 105.238 19.5477 105.238Z" fill="url(#paint1_linear_1717_9727)"/>
<path d="M44 86C45.3235 86 46.5 84.9706 46.5 83.5C46.5 82.1765 45.4706 81 44 81C42.6765 81 41.5 82.0294 41.5 83.5C41.6471 84.9706 42.6765 86 44 86Z" fill="url(#paint2_linear_1717_9727)"/>
<path d="M121.083 24.4484C122.742 22.8965 122.852 20.3468 121.304 18.6839C119.756 17.0211 117.213 16.9102 115.444 18.4622C113.786 20.0142 113.675 22.5639 115.223 24.2267C116.771 25.8896 119.314 26.0004 121.083 24.4484Z" fill="#EAEEF9"/>
<path d="M106.089 12.5455C107.085 12.5455 107.859 11.7695 107.859 10.7718C107.859 9.77404 107.085 8.99805 106.089 8.99805C105.094 8.99805 104.32 9.77404 104.32 10.7718C104.32 11.7695 105.094 12.5455 106.089 12.5455Z" fill="url(#paint3_linear_1717_9727)"/>
<path d="M63.9971 62.3367V75.3069C63.9971 76.4155 64.9922 77.4132 66.0979 77.4132C69.3045 77.4132 71.8476 74.9744 72.0688 71.7595L72.6216 60.4521" fill="#EAEEF9"/>
<path d="M63.9971 62.3367V75.3069C63.9971 76.4155 64.9922 77.4132 66.0979 77.4132C69.3045 77.4132 71.8476 74.9744 72.0688 71.7595L72.6216 60.4521" stroke="#1C3754" stroke-miterlimit="10"/>
<path d="M68.1982 64.2207L72.8422 87.6114C73.0634 88.72 74.1691 89.496 75.2748 89.2743C78.3708 88.6091 80.4717 85.7269 80.0294 82.512L77.2651 64.4424" fill="white"/>
<path d="M68.1982 64.2207L72.8422 87.6114C73.0634 88.72 74.1691 89.496 75.2748 89.2743C78.3708 88.6091 80.4717 85.7269 80.0294 82.512L77.2651 64.4424" stroke="#1C3754" stroke-miterlimit="10"/>
<g filter="url(#filter0_d_1717_9727)">
<path d="M12.0283 49.8095L74.28 68.8768C77.0443 69.7637 79.9191 68.2117 80.8037 65.4403L91.9714 28.8576C92.856 26.0862 91.308 23.2039 88.5437 22.3171L26.1814 3.24975C23.4171 2.3629 20.5423 3.91489 19.6577 6.6863L8.48997 43.269C7.71597 46.0404 9.26397 49.0335 12.0283 49.8095Z" fill="url(#paint4_linear_1717_9727)"/>
</g>
<path d="M78.7025 60.1188C78.5919 60.1188 78.4813 60.1188 78.3707 60.1188L56.5882 53.4674C56.0353 53.2456 55.7036 52.6914 55.8142 52.1371C56.0353 51.5828 56.5882 51.2502 57.141 51.3611L78.9236 58.0125C79.4765 58.2342 79.8082 58.7885 79.6976 59.3428C79.587 59.7862 79.1447 60.1188 78.7025 60.1188Z" fill="url(#paint5_linear_1717_9727)"/>
<path d="M76.1598 52.0262C76.0492 52.0262 75.9387 52.0262 75.8281 52.0262L49.9544 44.0445C49.4015 43.8228 49.0698 43.2685 49.1804 42.7142C49.4015 42.1599 49.9544 41.8274 50.5072 41.9382L76.381 49.9199C76.9338 50.1416 77.2655 50.6959 77.155 51.2502C77.0444 51.6936 76.6021 52.0262 76.1598 52.0262Z" fill="url(#paint6_linear_1717_9727)"/>
<path d="M87.4384 44.9316C95.289 46.7053 104.798 48.9225 110.106 50.1419C112.649 50.6962 114.528 52.5807 115.302 55.1304C116.298 58.7887 117.735 64.1098 118.509 68.1007C119.836 74.7521 119.836 80.5166 124.369 87.3897C124.812 88.0548 125.364 88.8308 125.807 89.496C126.802 90.8263 126.691 92.7108 125.696 94.0411C125.696 94.0411 116.298 102.91 111.985 107.011C110.658 108.231 108.668 108.452 107.12 107.455C102.808 104.794 94.2939 99.4731 91.6401 97.1451C87.9913 94.0411 85.1164 90.1611 82.905 85.5051C80.6936 80.8492 79.4773 77.3018 71.6267 69.5418C67.7567 65.7727 64.8818 62.3361 62.781 59.8973C60.9013 57.5693 61.0118 54.1327 63.2233 52.0265C65.5453 49.6985 69.3047 49.6985 71.6267 52.0265L91.0873 71.4264C91.0873 71.4264 88.2124 68.3224 89.3181 60.2298L83.5684 57.3476" fill="white"/>
<path d="M87.4384 44.9316C95.289 46.7053 104.798 48.9225 110.106 50.1419C112.649 50.6962 114.528 52.5807 115.302 55.1304C116.298 58.7887 117.735 64.1098 118.509 68.1007C119.836 74.7521 119.836 80.5166 124.369 87.3897C124.812 88.0548 125.364 88.8308 125.807 89.496C126.802 90.8263 126.691 92.7108 125.696 94.0411C125.696 94.0411 116.298 102.91 111.985 107.011C110.658 108.231 108.668 108.452 107.12 107.455C102.808 104.794 94.2939 99.4731 91.6401 97.1451C87.9913 94.0411 85.1164 90.1611 82.905 85.5051C80.6936 80.8492 79.4773 77.3018 71.6267 69.5418C67.7567 65.7727 64.8818 62.3361 62.781 59.8973C60.9013 57.5693 61.0118 54.1327 63.2233 52.0265C65.5453 49.6985 69.3047 49.6985 71.6267 52.0265L91.0873 71.4264C91.0873 71.4264 88.2124 68.3224 89.3181 60.2298L83.5684 57.3476" stroke="#1C3754" stroke-miterlimit="10" stroke-linecap="round" stroke-linejoin="round"/>
<path d="M93.1878 73.2005C92.5243 72.6462 91.7503 71.8703 91.0869 70.9834L93.1878 73.2005Z" fill="white"/>
<path d="M93.1878 73.2005C92.5243 72.6462 91.7503 71.8703 91.0869 70.9834" stroke="#1C3754" stroke-miterlimit="10" stroke-linecap="round" stroke-linejoin="round"/>
<path d="M64.4415 58.6997C64.8846 59.24 65.4385 59.8884 65.9923 60.5367C66.4354 61.077 67.3215 61.1851 67.8754 60.6448L72.0846 56.8627C72.6385 56.3224 72.6385 55.566 72.0846 55.0257L70.4231 53.1887C69.6477 52.4322 68.54 52 67.5431 52C66.4354 52 65.3277 52.4322 64.5523 53.2967C63.1123 54.8096 63.2231 57.1869 64.4415 58.6997Z" fill="#EAEEF9"/>
<path d="M37.4599 39.8325C37.6811 39.8325 37.7916 39.8324 38.0128 39.7216C38.6762 39.389 39.1185 38.613 38.7868 37.9479C38.2339 36.3959 38.1233 34.733 38.6762 33.1811C39.2291 31.6291 40.2242 30.2988 41.5511 29.4119C42.2145 28.9685 42.3251 28.0817 41.9933 27.5274C41.5511 26.8622 40.6665 26.7514 40.1136 27.0839C38.2339 28.3034 36.7965 30.1879 36.1331 32.4051C35.4696 34.6222 35.4696 36.9502 36.3542 39.0565C36.4648 39.4999 36.9071 39.8325 37.4599 39.8325Z" fill="white"/>
<path d="M31.9311 42.7144C32.1522 42.7144 32.2628 42.7144 32.484 42.6035C33.1474 42.2709 33.4791 41.495 33.1474 40.719C31.8205 37.7258 31.5994 34.2893 32.5945 31.1853C33.5897 28.0813 35.6905 25.4208 38.5654 23.7579C39.2288 23.3145 39.45 22.5385 39.0077 21.8733C38.5654 21.2082 37.7914 20.9865 37.128 21.4299C33.7003 23.4253 31.1571 26.6402 29.9408 30.4093C28.7245 34.1784 28.9457 38.2801 30.6042 41.9384C30.8254 42.4927 31.3782 42.7144 31.9311 42.7144Z" fill="white"/>
<path d="M26.624 45.4863C26.8452 45.4863 27.0663 45.4863 27.1769 45.3755C27.8403 45.0429 28.172 44.2669 27.8403 43.4909C25.85 39.0567 25.5183 34.0681 26.9557 29.4121C28.3932 24.7562 31.5997 20.8762 35.8014 18.4373C36.4649 18.1048 36.686 17.2179 36.3543 16.5528C36.0226 15.8876 35.138 15.6659 34.4746 15.9985C29.6094 18.7699 26.0712 23.2042 24.4126 28.5253C22.754 33.8464 23.0857 39.5001 25.4077 44.5995C25.6289 45.1538 26.1817 45.4863 26.624 45.4863Z" fill="white"/>
<path d="M82.4132 34.8289C83.2648 32.0808 81.7331 29.1609 78.9921 28.3072C76.2511 27.4534 73.3388 28.989 72.4872 31.7371C71.6356 34.4852 73.1673 37.405 75.9083 38.2588C78.6493 39.1125 81.5616 37.5769 82.4132 34.8289Z" fill="#2767F4"/>
<path d="M70.8521 36.3961C73.7223 36.3961 76.049 34.0634 76.049 31.1858C76.049 28.3083 73.7223 25.9756 70.8521 25.9756C67.982 25.9756 65.6553 28.3083 65.6553 31.1858C65.6553 34.0634 67.982 36.3961 70.8521 36.3961Z" fill="url(#paint7_linear_1717_9727)"/>
<defs>
<filter id="filter0_d_1717_9727" x="0.291016" y="0" width="99.9297" height="82.127" filterUnits="userSpaceOnUse" color-interpolation-filters="sRGB">
<feFlood flood-opacity="0" result="BackgroundImageFix"/>
<feColorMatrix in="SourceAlpha" type="matrix" values="0 0 0 0 0 0 0 0 0 0 0 0 0 0 0 0 0 0 127 0" result="hardAlpha"/>
<feOffset dy="5"/>
<feGaussianBlur stdDeviation="4"/>
<feColorMatrix type="matrix" values="0 0 0 0 0.1125 0 0 0 0 0.295916 0 0 0 0 1 0 0 0 0.22 0"/>
<feBlend mode="normal" in2="BackgroundImageFix" result="effect1_dropShadow_1717_9727"/>
<feBlend mode="normal" in="SourceGraphic" in2="effect1_dropShadow_1717_9727" result="shape"/>
</filter>
<linearGradient id="paint0_linear_1717_9727" x1="6.5" y1="62.5203" x2="10.0743" y2="62.5203" gradientUnits="userSpaceOnUse">
<stop stop-color="#83A6FF"/>
<stop offset="1" stop-color="#5A78FF"/>
</linearGradient>
<linearGradient id="paint1_linear_1717_9727" x1="17.7447" y1="103.405" x2="21.319" y2="103.405" gradientUnits="userSpaceOnUse">
<stop stop-color="#FF66A9"/>
<stop offset="1" stop-color="#F53689"/>
</linearGradient>
<linearGradient id="paint2_linear_1717_9727" x1="41.6021" y1="83.5679" x2="46.3559" y2="83.5679" gradientUnits="userSpaceOnUse">
<stop stop-color="#FF66A9"/>
<stop offset="1" stop-color="#F53689"/>
</linearGradient>
<linearGradient id="paint3_linear_1717_9727" x1="104.363" y1="10.777" x2="107.72" y2="10.777" gradientUnits="userSpaceOnUse">
<stop stop-color="#83A6FF"/>
<stop offset="1" stop-color="#5A78FF"/>
</linearGradient>
<linearGradient id="paint4_linear_1717_9727" x1="8.33793" y1="36.097" x2="92.1746" y2="36.097" gradientUnits="userSpaceOnUse">
<stop stop-color="#83A6FF"/>
<stop offset="1" stop-color="#5A78FF"/>
</linearGradient>
<linearGradient id="paint5_linear_1717_9727" x1="55.8039" y1="55.6166" x2="79.8189" y2="55.6166" gradientUnits="userSpaceOnUse">
<stop stop-color="#BDCFFF"/>
<stop offset="1" stop-color="#91A5FF" stop-opacity="0.5"/>
</linearGradient>
<linearGradient id="paint6_linear_1717_9727" x1="49.1512" y1="46.9693" x2="77.2549" y2="46.9693" gradientUnits="userSpaceOnUse">
<stop stop-color="#BDCFFF"/>
<stop offset="1" stop-color="#91A5FF" stop-opacity="0.5"/>
</linearGradient>
<linearGradient id="paint7_linear_1717_9727" x1="65.7263" y1="31.2055" x2="76.0248" y2="31.2055" gradientUnits="userSpaceOnUse">
<stop stop-color="#BDCFFF"/>
<stop offset="1" stop-color="#91A5FF" stop-opacity="0.5"/>
</linearGradient>
</defs>
</svg>
