<svg width="24" height="24" viewBox="0 0 24 24" fill="none" xmlns="http://www.w3.org/2000/svg">
<path d="M6.98918 13.8775L6.36263 16.2165L4.07258 16.2649C3.3882 14.9956 3 13.5432 3 11.9999C3 10.5074 3.36295 9.10006 4.00631 7.86084H4.0068L6.04559 8.23462L6.9387 10.2612C6.75177 10.8061 6.64989 11.3911 6.64989 11.9999C6.64996 12.6605 6.76963 13.2935 6.98918 13.8775Z" fill="#FBBB00"/>
<path d="M20.8422 10.3188C20.9455 10.8633 20.9994 11.4255 20.9994 12.0002C20.9994 12.6445 20.9317 13.273 20.8026 13.8793C20.3645 15.9424 19.2197 17.7438 17.6338 19.0187L17.6333 19.0182L15.0654 18.8872L14.7019 16.6184C15.7542 16.0012 16.5766 15.0354 17.0098 13.8793H12.1973V10.3188H17.08H20.8422Z" fill="#518EF8"/>
<path d="M17.6336 19.0178L17.6341 19.0183C16.0917 20.258 14.1325 20.9998 11.9997 20.9998C8.57227 20.9998 5.59239 19.0841 4.07227 16.2649L6.98886 13.8774C7.74891 15.9059 9.70567 17.3499 11.9997 17.3499C12.9857 17.3499 13.9095 17.0833 14.7021 16.618L17.6336 19.0178Z" fill="#28B446"/>
<path d="M17.7442 5.07197L14.8286 7.45894C14.0082 6.94615 13.0385 6.64992 11.9995 6.64992C9.65361 6.64992 7.66025 8.16013 6.93828 10.2613L4.00635 7.86098H4.00586C5.50373 4.97307 8.52119 3 11.9995 3C14.1833 3 16.1855 3.77787 17.7442 5.07197Z" fill="#F14336"/>
</svg>
