<svg width="24" height="24" viewBox="0 0 24 24" fill="none" xmlns="http://www.w3.org/2000/svg">
<path d="M18.8 7.35L19.25 6.75L18.8 7.35ZM13.8 3.6L13.35 4.2L13.8 3.6ZM10.2 3.6L9.75 3V3L10.2 3.6ZM5.2 7.35L5.65 7.95L5.65 7.95L5.2 7.35ZM4.75 17.75V9.75H3.25V17.75H4.75ZM20.75 17.75V9.75H19.25V17.75H20.75ZM7 21.5H17V20H7V21.5ZM19.25 6.75L14.25 3L13.35 4.2L18.35 7.95L19.25 6.75ZM9.75 3L4.75 6.75L5.65 7.95L10.65 4.2L9.75 3ZM14.25 3C12.9167 2 11.0833 2 9.75 3L10.65 4.2C11.45 3.6 12.55 3.6 13.35 4.2L14.25 3ZM20.75 9.75C20.75 8.56966 20.1943 7.4582 19.25 6.75L18.35 7.95C18.9166 8.37492 19.25 9.0418 19.25 9.75H20.75ZM19.25 17.75C19.25 18.9926 18.2426 20 17 20V21.5C19.0711 21.5 20.75 19.8211 20.75 17.75H19.25ZM4.75 9.75C4.75 9.0418 5.08344 8.37492 5.65 7.95L4.75 6.75C3.80573 7.4582 3.25 8.56966 3.25 9.75H4.75ZM3.25 17.75C3.25 19.8211 4.92893 21.5 7 21.5V20C5.75736 20 4.75 18.9926 4.75 17.75H3.25ZM14.25 15.75V20.75H15.75V15.75H14.25ZM9.75 20.75V15.75H8.25V20.75H9.75ZM12 13.5C12.7283 13.5 13.1991 13.5016 13.546 13.5482C13.8713 13.592 13.9732 13.6626 14.0303 13.7197L15.091 12.659C14.7087 12.2768 14.2375 12.1277 13.7458 12.0616C13.2758 11.9984 12.6859 12 12 12V13.5ZM15.75 15.75C15.75 15.0641 15.7516 14.4742 15.6884 14.0042C15.6223 13.5125 15.4732 13.0413 15.091 12.659L14.0303 13.7197C14.0874 13.7768 14.158 13.8787 14.2018 14.204C14.2484 14.5509 14.25 15.0217 14.25 15.75H15.75ZM12 12C11.3141 12 10.7242 11.9984 10.2542 12.0616C9.76252 12.1277 9.29126 12.2768 8.90901 12.659L9.96967 13.7197C10.0268 13.6626 10.1287 13.592 10.454 13.5482C10.8009 13.5016 11.2717 13.5 12 13.5V12ZM9.75 15.75C9.75 15.0217 9.75159 14.5509 9.79823 14.204C9.84197 13.8787 9.91258 13.7768 9.96967 13.7197L8.90901 12.659C8.52676 13.0413 8.3777 13.5125 8.31161 14.0042C8.24841 14.4742 8.25 15.0641 8.25 15.75H9.75Z" fill="#0738D2"/>
</svg>
