<svg width="33" height="23" viewBox="0 0 33 23" fill="none" xmlns="http://www.w3.org/2000/svg">
<path d="M6.39261 15.9708C5.98467 15.9708 5.65397 16.3015 5.65397 16.7094C5.65397 17.1174 5.98467 17.4481 6.39261 17.4481V15.9708ZM11.8352 17.4481C12.2431 17.4481 12.5738 17.1174 12.5738 16.7094C12.5738 16.3015 12.2431 15.9708 11.8352 15.9708V17.4481ZM4.83759 1.89782H28.1629V0.420543H4.83759V1.89782ZM30.5344 4.26923V18.2644H32.0116V4.26923H30.5344ZM28.1629 20.6359H4.83759V22.1131H28.1629V20.6359ZM2.46618 18.2644V4.26923H0.988903V18.2644H2.46618ZM4.83759 20.6359C3.52789 20.6359 2.46618 19.5741 2.46618 18.2644H0.988903C0.988903 20.39 2.71202 22.1131 4.83759 22.1131V20.6359ZM30.5344 18.2644C30.5344 19.5741 29.4726 20.6359 28.1629 20.6359V22.1131C30.2885 22.1131 32.0116 20.39 32.0116 18.2644H30.5344ZM28.1629 1.89782C29.4726 1.89782 30.5344 2.95953 30.5344 4.26923H32.0116C32.0116 2.14366 30.2885 0.420543 28.1629 0.420543V1.89782ZM4.83759 0.420543C2.71202 0.420543 0.988903 2.14366 0.988903 4.26923H2.46618C2.46618 2.95953 3.52789 1.89782 4.83759 1.89782V0.420543ZM1.72754 8.11791H31.273V6.64064H1.72754V8.11791ZM6.39261 17.4481H11.8352V15.9708H6.39261V17.4481Z" fill="#D3D4D8"/>
</svg>
