<svg width="22" height="22" viewBox="0 0 22 22" fill="none" xmlns="http://www.w3.org/2000/svg">
<path d="M6 13L7.79689 10.8437C8.50894 9.98928 8.86496 9.56205 9.33333 9.56205C9.80171 9.56205 10.1577 9.98928 10.8698 10.8437L11.1302 11.1563C11.8423 12.0107 12.1983 12.438 12.6667 12.438C13.135 12.438 13.4911 12.0107 14.2031 11.1563L16 9M11 21C6.28595 21 3.92893 21 2.46447 19.5355C1 18.0711 1 15.714 1 11C1 6.28595 1 3.92893 2.46447 2.46447C3.92893 1 6.28595 1 11 1C15.714 1 18.0711 1 19.5355 2.46447C21 3.92893 21 6.28595 21 11C21 15.714 21 18.0711 19.5355 19.5355C18.0711 21 15.714 21 11 21Z" stroke="#4F5162" stroke-width="1.5" stroke-linecap="round"/>
</svg>
