<svg width="24" height="23" viewBox="0 0 24 23" fill="none" xmlns="http://www.w3.org/2000/svg">
<path d="M6.84819 17.5039C4.60709 17.4917 3.39339 17.3946 2.60166 16.6208C1.69629 15.7359 1.69629 14.3117 1.69629 11.4632L1.69629 7.43498C1.69629 4.58656 1.69629 3.16236 2.60166 2.27747C3.50704 1.39258 4.96422 1.39258 7.87857 1.39258L16.1216 1.39258C19.036 1.39258 20.4932 1.39258 21.3985 2.27747C22.3039 3.16236 22.3039 4.58656 22.3039 7.43498V11.4632C22.3039 14.3117 22.3039 15.7359 21.3985 16.6208C20.6465 17.3558 19.5137 17.4803 17.4814 17.5013L16.6368 17.5039" stroke="#0738D2" stroke-width="1.47727"/>
<path d="M8.90869 5.4209L15.091 5.4209" stroke="#0738D2" stroke-width="1.47727" stroke-linecap="round"/>
<path d="M6.84766 8.9458H17.1515" stroke="#0738D2" stroke-width="1.47727" stroke-linecap="round"/>
<path d="M10.8566 13.4222C11.5153 12.8736 12.484 12.8736 13.1427 13.4222C13.425 13.6573 13.7759 13.7994 14.1456 13.8282C15.0082 13.8955 15.6932 14.565 15.7621 15.4081C15.7916 15.7694 15.9369 16.1124 16.1775 16.3883C16.7388 17.0321 16.7388 17.9789 16.1775 18.6227C15.9369 18.8985 15.7916 19.2415 15.7621 19.6028C15.6932 20.446 15.0082 21.1155 14.1456 21.1828C13.7759 21.2116 13.425 21.3537 13.1427 21.5888C12.484 22.1374 11.5153 22.1374 10.8566 21.5888C10.5744 21.3537 10.2234 21.2116 9.85377 21.1828C8.99112 21.1155 8.3061 20.446 8.23726 19.6028C8.20776 19.2415 8.0624 18.8985 7.82186 18.6227C7.26055 17.9789 7.26055 17.0321 7.82186 16.3883C8.0624 16.1124 8.20776 15.7694 8.23726 15.4081C8.3061 14.565 8.99112 13.8955 9.85377 13.8282C10.2234 13.7994 10.5744 13.6573 10.8566 13.4222Z" stroke="#0738D2" stroke-width="1.47727"/>
<path d="M10.4546 17.707L11.3378 18.5127L13.5457 16.4985" stroke="#0738D2" stroke-width="1.47727" stroke-linecap="round" stroke-linejoin="round"/>
</svg>
