<svg width="49" height="17" viewBox="0 0 49 17" fill="none" xmlns="http://www.w3.org/2000/svg">
<path fill-rule="evenodd" clip-rule="evenodd" d="M12.2526 16.4423H8.01392L4.83545 3.95963C4.68459 3.38543 4.36426 2.8778 3.89307 2.63855C2.71716 2.0373 1.42138 1.55879 0.0078125 1.31746V0.836878H6.83595C7.77833 0.836878 8.48511 1.55879 8.60291 2.39721L10.2521 11.4014L14.4887 0.836878H18.6095L12.2526 16.4423ZM20.9648 16.4423H16.9618L20.258 0.836878H24.2611L20.9648 16.4423ZM29.4416 5.1577C29.5594 4.3172 30.2662 3.83661 31.0908 3.83661C32.3865 3.71595 33.798 3.95728 34.976 4.55645L35.6828 1.19652C34.5048 0.715941 33.2091 0.474609 32.0331 0.474609C28.1479 0.474609 25.3207 2.6362 25.3207 5.6362C25.3207 7.91845 27.3233 9.11679 28.7369 9.83871C30.2662 10.5585 30.8552 11.0391 30.7374 11.759C30.7374 12.8387 29.5594 13.3193 28.3835 13.3193C26.9699 13.3193 25.5563 12.9594 24.2626 12.3581L23.5558 15.7201C24.9694 16.3193 26.4987 16.5606 27.9123 16.5606C32.2687 16.6792 34.976 14.5197 34.976 11.2784C34.976 7.19654 29.4416 6.95729 29.4416 5.1577ZM48.9833 16.4423L45.8049 0.836878H42.3908C41.684 0.836878 40.9772 1.31746 40.7416 2.0373L34.8559 16.4423H38.9767L39.7992 14.1622H44.8625L45.3337 16.4423H48.9833ZM42.9803 5.03763L44.1562 10.9191H40.8599L42.9803 5.03763Z" fill="white"/>
</svg>
