<svg width="29" height="30" viewBox="0 0 29 30" fill="none" xmlns="http://www.w3.org/2000/svg">
<g clip-path="url(#clip0_1802_8698)">
<path d="M21.3362 14.0527L21.4677 13.361C22.19 9.56308 19.6966 5.89875 15.8987 5.1765C12.1008 4.45426 8.43645 6.94759 7.7142 10.7455L7.58266 11.4372C7.4248 12.2673 7.02476 13.0321 6.43294 13.6353L4.98269 15.1133C3.65802 16.4633 4.04523 18.7143 5.74484 19.5441C10.191 21.7148 15.1374 22.6554 20.07 22.2683C21.9555 22.1203 23.142 20.1685 22.4053 18.4265L21.5988 16.5194C21.2697 15.7411 21.1783 14.8828 21.3362 14.0527Z" stroke="#0738D2" stroke-width="1.5"/>
<path d="M8.30265 21.0362C8.61962 22.8756 10.122 24.436 12.163 24.8241C14.2039 25.2122 16.1742 24.3122 17.1442 22.7176" stroke="#0738D2" stroke-width="1.5" stroke-linecap="round"/>
</g>
<defs>
<clipPath id="clip0_1802_8698">
<rect x="4.48438" y="0.969727" width="24" height="24" rx="5" transform="rotate(10.7673 4.48438 0.969727)" fill="white"/>
</clipPath>
</defs>
</svg>
